<svg id="OBJECTS" xmlns="http://www.w3.org/2000/svg" width="343.47" height="342.743" viewBox="0 0 343.47 342.743">
  <g id="Group_1204997" data-name="Group 1204997">
    <path id="Path_1271060" data-name="Path 1271060" d="M331.261,294.755h-23.8a33.115,33.115,0,0,0,10.22-23.9V93.583A33.25,33.25,0,0,0,302.5,65.738h53.623A13.414,13.414,0,0,0,369.5,52.363V51.54a13.414,13.414,0,0,0-13.375-13.375h-97.79A13.414,13.414,0,0,0,244.959,51.54v.822c0,.03,0,.06,0,.09a7.78,7.78,0,0,1-7.732,7.919H85.432A33.309,33.309,0,0,0,52.22,93.583V270.857A33.272,33.272,0,0,0,69,299.681,11.025,11.025,0,0,1,72.717,315.1a42.688,42.688,0,0,0-6.538,22.731h0a43.2,43.2,0,0,0,43.077,43.077H331.261a43.2,43.2,0,0,0,43.077-43.077h0A43.2,43.2,0,0,0,331.261,294.755Z" transform="translate(-52.22 -38.165)" fill="#b59eee"/>
    <path id="Path_1271061" data-name="Path 1271061" d="M384.246,71.5H376.64A11.478,11.478,0,0,0,365.2,82.945h0A11.478,11.478,0,0,0,376.64,94.39h7.606A11.478,11.478,0,0,0,395.69,82.945h0A11.479,11.479,0,0,0,384.246,71.5Z" transform="translate(-52.22 -38.165)" fill="#b59eee"/>
  </g>
  <g id="Group_1204999" data-name="Group 1204999" transform="translate(117.85 59.243)">
    <path id="Path_1271062" data-name="Path 1271062" d="M294.527,284.215h-121.5a2.953,2.953,0,0,1-2.953-2.953v-180.9a2.953,2.953,0,0,1,2.953-2.953h121.5a2.953,2.953,0,0,1,2.953,2.953v180.9A2.953,2.953,0,0,1,294.527,284.215Z" transform="translate(-170.071 -97.408)" fill="#fff"/>
    <path id="Path_1271063" data-name="Path 1271063" d="M252.449,114.631H215.1a1.942,1.942,0,0,1-1.942-1.942v-1.37a1.942,1.942,0,0,1,1.942-1.942h37.347a1.942,1.942,0,0,1,1.942,1.942v1.37A1.942,1.942,0,0,1,252.449,114.631Z" transform="translate(-170.071 -97.408)" fill="#e0e0e0"/>
    <path id="Path_1271064" data-name="Path 1271064" d="M285.406,128.188H182.145a1.313,1.313,0,0,1-1.313-1.313h0a1.313,1.313,0,0,1,1.313-1.313H285.406a1.313,1.313,0,0,1,1.313,1.313h0A1.313,1.313,0,0,1,285.406,128.188Z" transform="translate(-170.071 -97.408)" fill="#e0e0e0"/>
    <path id="Path_1271065" data-name="Path 1271065" d="M285.406,140.415H182.145a1.313,1.313,0,0,1-1.313-1.313h0a1.313,1.313,0,0,1,1.313-1.313H285.406a1.313,1.313,0,0,1,1.313,1.313h0A1.313,1.313,0,0,1,285.406,140.415Z" transform="translate(-170.071 -97.408)" fill="#e0e0e0"/>
    <path id="Path_1271066" data-name="Path 1271066" d="M285.406,152.641H182.145a1.313,1.313,0,0,1-1.313-1.313h0a1.313,1.313,0,0,1,1.313-1.313H285.406a1.313,1.313,0,0,1,1.313,1.313h0A1.313,1.313,0,0,1,285.406,152.641Z" transform="translate(-170.071 -97.408)" fill="#e0e0e0"/>
    <path id="Path_1271067" data-name="Path 1271067" d="M285.406,164.868H182.145a1.313,1.313,0,0,1-1.313-1.313h0a1.313,1.313,0,0,1,1.313-1.313H285.406a1.313,1.313,0,0,1,1.313,1.313h0A1.313,1.313,0,0,1,285.406,164.868Z" transform="translate(-170.071 -97.408)" fill="#e0e0e0"/>
    <path id="Path_1271068" data-name="Path 1271068" d="M285.406,177.1H182.145a1.313,1.313,0,0,1-1.313-1.313h0a1.313,1.313,0,0,1,1.313-1.313H285.406a1.313,1.313,0,0,1,1.313,1.313h0A1.314,1.314,0,0,1,285.406,177.1Z" transform="translate(-170.071 -97.408)" fill="#e0e0e0"/>
    <path id="Path_1271069" data-name="Path 1271069" d="M285.406,189.323H182.145a1.313,1.313,0,0,1-1.313-1.313h0a1.313,1.313,0,0,1,1.313-1.313H285.406a1.313,1.313,0,0,1,1.313,1.313h0A1.314,1.314,0,0,1,285.406,189.323Z" transform="translate(-170.071 -97.408)" fill="#e0e0e0"/>
    <path id="Path_1271070" data-name="Path 1271070" d="M285.406,201.549H182.145a1.313,1.313,0,0,1-1.313-1.313h0a1.313,1.313,0,0,1,1.313-1.313H285.406a1.313,1.313,0,0,1,1.313,1.313h0A1.314,1.314,0,0,1,285.406,201.549Z" transform="translate(-170.071 -97.408)" fill="#e0e0e0"/>
    <path id="Path_1271071" data-name="Path 1271071" d="M285.406,213.776H182.145a1.313,1.313,0,0,1-1.313-1.313h0a1.313,1.313,0,0,1,1.313-1.313H285.406a1.313,1.313,0,0,1,1.313,1.313h0A1.313,1.313,0,0,1,285.406,213.776Z" transform="translate(-170.071 -97.408)" fill="#e0e0e0"/>
    <path id="Path_1271072" data-name="Path 1271072" d="M285.406,226H182.145a1.313,1.313,0,0,1-1.313-1.313h0a1.313,1.313,0,0,1,1.313-1.313H285.406a1.313,1.313,0,0,1,1.313,1.313h0A1.314,1.314,0,0,1,285.406,226Z" transform="translate(-170.071 -97.408)" fill="#e0e0e0"/>
    <path id="Path_1271073" data-name="Path 1271073" d="M285.406,238.23H182.145a1.313,1.313,0,0,1-1.313-1.313h0a1.313,1.313,0,0,1,1.313-1.313H285.406a1.313,1.313,0,0,1,1.313,1.313h0A1.313,1.313,0,0,1,285.406,238.23Z" transform="translate(-170.071 -97.408)" fill="#e0e0e0"/>
    <path id="Path_1271074" data-name="Path 1271074" d="M285.406,250.457H182.145a1.313,1.313,0,0,1-1.313-1.313h0a1.313,1.313,0,0,1,1.313-1.313H285.406a1.313,1.313,0,0,1,1.313,1.313h0A1.313,1.313,0,0,1,285.406,250.457Z" transform="translate(-170.071 -97.408)" fill="#e0e0e0"/>
    <path id="Path_1271075" data-name="Path 1271075" d="M263.185,262.684h-81.04a1.313,1.313,0,0,1-1.313-1.313h0a1.313,1.313,0,0,1,1.313-1.313h81.04a1.313,1.313,0,0,1,1.313,1.313h0A1.313,1.313,0,0,1,263.185,262.684Z" transform="translate(-170.071 -97.408)" fill="#e0e0e0"/>
    <path id="Path_1271076" data-name="Path 1271076" d="M213.237,273.809H182.178a1.346,1.346,0,0,1-1.346-1.346h0a1.346,1.346,0,0,1,1.346-1.346h31.059a1.346,1.346,0,0,1,1.346,1.346h0A1.346,1.346,0,0,1,213.237,273.809Z" transform="translate(-170.071 -97.408)" fill="#e0e0e0"/>
    <circle id="Ellipse_12658" data-name="Ellipse 12658" cx="6.583" cy="6.583" r="6.583" transform="matrix(0.198, -0.98, 0.98, 0.198, 97.215, 177.385)" fill="#3752b5"/>
    <circle id="Ellipse_12659" data-name="Ellipse 12659" cx="8.715" cy="8.715" r="8.715" transform="translate(96.241 163.509)" fill="none" stroke="#3752b5" stroke-miterlimit="10" stroke-width="1.605"/>
    <g id="Group_1204998" data-name="Group 1204998" transform="translate(75.015 67.46)">
      <path id="Path_1271077" data-name="Path 1271077" d="M245.086,284.27v-119.4H297.48V284.216Z" transform="translate(-245.086 -164.868)" fill="#333" opacity="0.2"/>
      <path id="Path_1271078" data-name="Path 1271078" d="M337.465,305.732H251.138a4.051,4.051,0,0,1-4.05-4.05V171.333a4.051,4.051,0,0,1,4.05-4.05h86.327a4.051,4.051,0,0,1,4.05,4.05V301.682A4.051,4.051,0,0,1,337.465,305.732Z" transform="translate(-245.086 -164.868)" fill="#fff9c0"/>
      <path id="Path_1271079" data-name="Path 1271079" d="M281.8,180.047H257.56a1.947,1.947,0,0,1-1.947-1.947h0a1.947,1.947,0,0,1,1.947-1.947H281.8a1.947,1.947,0,0,1,1.947,1.947h0A1.947,1.947,0,0,1,281.8,180.047Z" transform="translate(-245.086 -164.868)" fill="#ffc931"/>
      <path id="Path_1271080" data-name="Path 1271080" d="M319.111,180.047H294.875a1.947,1.947,0,0,1-1.947-1.947h0a1.947,1.947,0,0,1,1.947-1.947h24.237a1.947,1.947,0,0,1,1.947,1.947h0A1.946,1.946,0,0,1,319.111,180.047Z" transform="translate(-245.086 -164.868)" fill="#ffc931"/>
      <path id="Path_1271081" data-name="Path 1271081" d="M312.424,190.1H256.036a.974.974,0,0,1-.974-.974h0a.974.974,0,0,1,.974-.974h56.388a.974.974,0,0,1,.974.974h0A.973.973,0,0,1,312.424,190.1Z" transform="translate(-245.086 -164.868)" fill="#ffc931"/>
      <path id="Path_1271082" data-name="Path 1271082" d="M332.567,199.157H256.036a.974.974,0,0,1-.974-.974h0a.974.974,0,0,1,.974-.974h76.531a.974.974,0,0,1,.974.974h0A.974.974,0,0,1,332.567,199.157Z" transform="translate(-245.086 -164.868)" fill="#ffc931"/>
      <path id="Path_1271083" data-name="Path 1271083" d="M332.567,208.219H256.036a.974.974,0,0,1-.974-.974h0a.974.974,0,0,1,.974-.974h76.531a.974.974,0,0,1,.974.974h0A.974.974,0,0,1,332.567,208.219Z" transform="translate(-245.086 -164.868)" fill="#ffc931"/>
      <path id="Path_1271084" data-name="Path 1271084" d="M332.567,217.281H256.036a.974.974,0,0,1-.974-.974h0a.974.974,0,0,1,.974-.974h76.531a.974.974,0,0,1,.974.974h0A.974.974,0,0,1,332.567,217.281Z" transform="translate(-245.086 -164.868)" fill="#ffc931"/>
      <path id="Path_1271085" data-name="Path 1271085" d="M332.567,226.342H256.036a.974.974,0,0,1-.974-.974h0a.974.974,0,0,1,.974-.974h76.531a.974.974,0,0,1,.974.974h0A.973.973,0,0,1,332.567,226.342Z" transform="translate(-245.086 -164.868)" fill="#ffc931"/>
      <path id="Path_1271086" data-name="Path 1271086" d="M332.567,235.4H256.036a.974.974,0,0,1-.974-.974h0a.974.974,0,0,1,.974-.974h76.531a.974.974,0,0,1,.974.974h0A.973.973,0,0,1,332.567,235.4Z" transform="translate(-245.086 -164.868)" fill="#ffc931"/>
      <path id="Path_1271087" data-name="Path 1271087" d="M332.567,244.466H256.036a.974.974,0,0,1-.974-.974h0a.974.974,0,0,1,.974-.974h76.531a.974.974,0,0,1,.974.974h0A.973.973,0,0,1,332.567,244.466Z" transform="translate(-245.086 -164.868)" fill="#ffc931"/>
      <path id="Path_1271088" data-name="Path 1271088" d="M332.567,253.527H256.036a.974.974,0,0,1-.974-.974h0a.974.974,0,0,1,.974-.974h76.531a.974.974,0,0,1,.974.974h0A.973.973,0,0,1,332.567,253.527Z" transform="translate(-245.086 -164.868)" fill="#ffc931"/>
      <path id="Path_1271089" data-name="Path 1271089" d="M332.567,262.589H256.036a.974.974,0,0,1-.974-.974h0a.974.974,0,0,1,.974-.974h76.531a.974.974,0,0,1,.974.974h0A.973.973,0,0,1,332.567,262.589Z" transform="translate(-245.086 -164.868)" fill="#ffc931"/>
      <path id="Path_1271090" data-name="Path 1271090" d="M332.567,271.651H256.036a.974.974,0,0,1-.974-.974h0a.974.974,0,0,1,.974-.974h76.531a.974.974,0,0,1,.974.974h0A.974.974,0,0,1,332.567,271.651Z" transform="translate(-245.086 -164.868)" fill="#ffc931"/>
      <path id="Path_1271091" data-name="Path 1271091" d="M332.567,280.713H256.036a.974.974,0,0,1-.974-.974h0a.974.974,0,0,1,.974-.974h76.531a.974.974,0,0,1,.974.974h0A.973.973,0,0,1,332.567,280.713Z" transform="translate(-245.086 -164.868)" fill="#ffc931"/>
      <path id="Path_1271092" data-name="Path 1271092" d="M316.1,289.775H256.036a.974.974,0,0,1-.974-.974h0a.974.974,0,0,1,.974-.974H316.1a.974.974,0,0,1,.974.974h0A.973.973,0,0,1,316.1,289.775Z" transform="translate(-245.086 -164.868)" fill="#ffc931"/>
      <circle id="Ellipse_12660" data-name="Ellipse 12660" cx="6.459" cy="6.459" r="6.459" transform="translate(72.481 135.563) rotate(-81.946)" fill="none" stroke="#3752b5" stroke-miterlimit="10" stroke-width="1.605"/>
      <circle id="Ellipse_12661" data-name="Ellipse 12661" cx="4.879" cy="4.879" r="4.879" transform="translate(72.884 130.056) rotate(-45)" fill="#3752b5"/>
      <circle id="Ellipse_12662" data-name="Ellipse 12662" cx="5.485" cy="5.485" r="5.485" transform="translate(64.224 124.53) rotate(-45)" fill="none" stroke="#aa4b17" stroke-miterlimit="10" stroke-width="1.605"/>
      <circle id="Ellipse_12663" data-name="Ellipse 12663" cx="4.143" cy="4.143" r="4.143" transform="translate(67.233 127.97) rotate(-80.758)" fill="#aa4b17"/>
      <path id="Path_1271093" data-name="Path 1271093" d="M279.08,298.02H256.06a1,1,0,0,1-1-1h0a1,1,0,0,1,1-1H279.08a1,1,0,0,1,1,1h0A1,1,0,0,1,279.08,298.02Z" transform="translate(-245.086 -164.868)" fill="#ffc931"/>
    </g>
  </g>
  <g id="Group_1205001" data-name="Group 1205001" transform="translate(27.584 45.981)">
    <path id="Path_1271094" data-name="Path 1271094" d="M163.594,194.537l-83.135-21.5a.875.875,0,0,1-.628-1.065L89.3,135.345a.875.875,0,0,1,1.065-.628l83.135,21.5a.874.874,0,0,1,.627,1.065l-9.471,36.631A.874.874,0,0,1,163.594,194.537Z" transform="translate(-79.804 -84.146)" fill="#62c29c"/>
    <path id="Path_1271095" data-name="Path 1271095" d="M161.992,192.6,82.8,172.122a1.155,1.155,0,0,1-.829-1.407l8.592-33.229a1.155,1.155,0,0,1,1.407-.829l79.191,20.476a1.156,1.156,0,0,1,.829,1.408L163.4,191.769A1.154,1.154,0,0,1,161.992,192.6Z" transform="translate(-79.804 -84.146)" fill="none" stroke="#0e8253" stroke-miterlimit="10" stroke-width="1.605"/>
    <path id="Path_1271096" data-name="Path 1271096" d="M103.441,139.622A13.009,13.009,0,0,1,87.59,148.96l3.257-12.594Z" transform="translate(-79.804 -84.146)" fill="#0e8253"/>
    <path id="Path_1271097" data-name="Path 1271097" d="M159.686,154.165a13.009,13.009,0,0,0,9.338,15.851l3.257-12.594Z" transform="translate(-79.804 -84.146)" fill="#0e8253"/>
    <path id="Path_1271098" data-name="Path 1271098" d="M94.274,175.089a13.009,13.009,0,0,0-9.338-15.851L81.68,171.832Z" transform="translate(-79.804 -84.146)" fill="#0e8253"/>
    <path id="Path_1271099" data-name="Path 1271099" d="M150.519,189.632a13.009,13.009,0,0,1,15.851-9.338l-3.257,12.594Z" transform="translate(-79.804 -84.146)" fill="#0e8253"/>
    <circle id="Ellipse_12664" data-name="Ellipse 12664" cx="6.901" cy="6.901" r="6.901" transform="translate(17.808 80.623) rotate(-80.631)" fill="#0e8253"/>
    <circle id="Ellipse_12665" data-name="Ellipse 12665" cx="6.901" cy="6.901" r="6.901" transform="translate(60.732 91.777) rotate(-81.043)" fill="#0e8253"/>
    <ellipse id="Ellipse_12666" data-name="Ellipse 12666" cx="16.146" cy="11.748" rx="16.146" ry="11.748" transform="translate(31.277 92.739) rotate(-75.505)" fill="#0e8253"/>
    <text id="_" data-name="$" transform="translate(37.697 86.037) rotate(14.495)" fill="#c5ffbd" font-size="23" font-family="SegoeUI, Segoe UI"><tspan x="0" y="0">$</tspan></text>
    <path id="Path_1271100" data-name="Path 1271100" d="M180.494,171.993l-62.637-58.737a.874.874,0,0,1-.04-1.235l25.881-27.6a.874.874,0,0,1,1.235-.04l62.637,58.737a.874.874,0,0,1,.04,1.235l-25.881,27.6A.874.874,0,0,1,180.494,171.993Z" transform="translate(-79.804 -84.146)" fill="#62c29c"/>
    <path id="Path_1271101" data-name="Path 1271101" d="M180.018,169.524l-59.666-55.95a1.154,1.154,0,0,1-.052-1.632L143.777,86.9a1.154,1.154,0,0,1,1.632-.052l59.666,55.95a1.155,1.155,0,0,1,.052,1.633l-23.477,25.036A1.155,1.155,0,0,1,180.018,169.524Z" transform="translate(-79.804 -84.146)" fill="none" stroke="#0e8253" stroke-miterlimit="10" stroke-width="1.605"/>
    <path id="Path_1271102" data-name="Path 1271102" d="M154.051,94.955a13.009,13.009,0,0,1-18.388.591l8.9-9.489Z" transform="translate(-79.804 -84.146)" fill="#0e8253"/>
    <path id="Path_1271103" data-name="Path 1271103" d="M196.429,134.694a13.009,13.009,0,0,0,.591,18.388l8.9-9.489Z" transform="translate(-79.804 -84.146)" fill="#0e8253"/>
    <path id="Path_1271104" data-name="Path 1271104" d="M129,121.679a13.009,13.009,0,0,0-.591-18.388l-8.9,9.489Z" transform="translate(-79.804 -84.146)" fill="#0e8253"/>
    <path id="Path_1271105" data-name="Path 1271105" d="M171.374,161.418a13.009,13.009,0,0,1,18.388-.591l-8.9,9.489Z" transform="translate(-79.804 -84.146)" fill="#0e8253"/>
    <path id="Path_1271106" data-name="Path 1271106" d="M151.59,117.757a6.9,6.9,0,1,1-.314-9.755A6.9,6.9,0,0,1,151.59,117.757Z" transform="translate(-79.804 -84.146)" fill="#0e8253"/>
    <path id="Path_1271107" data-name="Path 1271107" d="M183.9,148.057a6.9,6.9,0,1,1-.314-9.755A6.9,6.9,0,0,1,183.9,148.057Z" transform="translate(-79.804 -84.146)" fill="#0e8253"/>
    <ellipse id="Ellipse_12667" data-name="Ellipse 12667" cx="16.146" cy="11.748" rx="16.146" ry="11.748" transform="translate(63.073 47.167) rotate(-46.844)" fill="#0e8253"/>
    <g id="Group_1205000" data-name="Group 1205000" transform="translate(74.368 35.303)">
      <path id="Path_1271108" data-name="Path 1271108" d="M155.463,134.3l1.173-1.25a10.2,10.2,0,0,1-2.464-5.819l2.648-.318a8.143,8.143,0,0,0,1.566,4.269l3.116-3.323a9.585,9.585,0,0,1-1.695-3.875,3.772,3.772,0,0,1,1.2-3.079,4.29,4.29,0,0,1,3.31-1.453,5.754,5.754,0,0,1,3.662,1.5l.8-.857,1.1,1.028-.819.874a9.81,9.81,0,0,1,2.358,4.626l-2.592.532a7.576,7.576,0,0,0-1.518-3.291l-3.02,3.221.052.048a9.518,9.518,0,0,1,1.722,3.965,3.893,3.893,0,0,1-1.22,3.154,4.263,4.263,0,0,1-3.351,1.445,6.058,6.058,0,0,1-3.773-1.607l-1.157,1.234Zm5.723-1.3a1.814,1.814,0,0,0,1.926-1.848,5.116,5.116,0,0,0-.786-1.977l-2.892,3.084A3.288,3.288,0,0,0,161.186,133Zm3.438-10.894a1.684,1.684,0,0,0-1.336.549,1.657,1.657,0,0,0-.509,1.229,4.763,4.763,0,0,0,.7,1.863l2.779-2.964A2.814,2.814,0,0,0,164.624,122.107Z" transform="translate(-154.172 -119.449)" fill="#c5ffbd"/>
    </g>
  </g>
  <g id="Group_1205002" data-name="Group 1205002" transform="translate(171.735 260.289)">
    <path id="Path_1271109" data-name="Path 1271109" d="M284.749,334.391l-51.052,7.73a5.083,5.083,0,0,1-5.77-4.253l-3.915-25.857a5.083,5.083,0,0,1,4.253-5.77l51.052-7.73a5.083,5.083,0,0,1,5.77,4.253L289,328.621A5.083,5.083,0,0,1,284.749,334.391Z" transform="translate(-223.955 -298.455)" fill="#526180"/>
    <rect id="Rectangle_411672" data-name="Rectangle 411672" width="61.769" height="6.007" transform="matrix(0.989, -0.15, 0.15, 0.989, 0.676, 17.692)" fill="#fe554e"/>
    <path id="Path_1271110" data-name="Path 1271110" d="M253.168,323.752l-23.536,3.564a1.263,1.263,0,0,1-1.438-1.06l-.206-1.36a1.263,1.263,0,0,1,1.06-1.438l23.536-3.564a1.263,1.263,0,0,1,1.438,1.06l.206,1.36A1.263,1.263,0,0,1,253.168,323.752Z" transform="translate(-223.955 -298.455)" fill="#fff"/>
    <path id="Path_1271111" data-name="Path 1271111" d="M320.83,356.547l-51.592,2.085a5.084,5.084,0,0,1-5.269-4.86l-1.056-26.13a5.084,5.084,0,0,1,4.859-5.269l51.592-2.085a5.084,5.084,0,0,1,5.269,4.86l1.056,26.13A5.083,5.083,0,0,1,320.83,356.547Z" transform="translate(-223.955 -298.455)" fill="#fe554e"/>
    <rect id="Rectangle_411673" data-name="Rectangle 411673" width="61.772" height="6.008" transform="translate(39.138 33.375) rotate(-2.315)" fill="#fbffff"/>
    <path id="Path_1271112" data-name="Path 1271112" d="M290.868,342.5l-24.308.982a1,1,0,0,1-1.041-.96l-.077-1.9a1,1,0,0,1,.96-1.041l24.308-.982a1,1,0,0,1,1.041.96l.077,1.9A1,1,0,0,1,290.868,342.5Z" transform="translate(-223.955 -298.455)" fill="#bed0ea"/>
  </g>
  <g id="Group_1205043" data-name="Group 1205043" transform="translate(27.042 90.046)">
    <g id="Group_1205006" data-name="Group 1205006" transform="translate(113.48 144.15)">
      <circle id="Ellipse_12668" data-name="Ellipse 12668" cx="12.874" cy="12.874" r="12.874" transform="translate(0 25.073) rotate(-76.856)" fill="#ffe32e"/>
      <path id="Path_1271113" data-name="Path 1271113" d="M208.208,298.98a11.153,11.153,0,0,1,0-22.305" transform="translate(-192.743 -272.361)" fill="#ffc931"/>
      <g id="Group_1205003" data-name="Group 1205003" transform="translate(15.465 3.511)">
        <path id="Path_1271114" data-name="Path 1271114" d="M208.208,299.783v-1.6a10.35,10.35,0,1,0,0-20.7v-1.605a11.955,11.955,0,1,1,0,23.911Z" transform="translate(-208.208 -275.872)" fill="#ffc931"/>
      </g>
      <g id="Group_1205005" data-name="Group 1205005" transform="translate(11.799 9.413)">
        <g id="Group_1205004" data-name="Group 1205004">
          <path id="Path_1271115" data-name="Path 1271115" d="M207.774,293.882v-1.066a6.222,6.222,0,0,1-2.878-1.042.826.826,0,0,1-.159-1.213h0a.83.83,0,0,1,1.112-.139,4.669,4.669,0,0,0,1.925.8v-2.833a5.963,5.963,0,0,1-2.417-1.037,2.345,2.345,0,0,1-.767-1.906,2.667,2.667,0,0,1,.884-2.067,3.575,3.575,0,0,1,2.3-.876v-.73h.935v.745a6.1,6.1,0,0,1,3.038,1.1l-.95,1.344a4.707,4.707,0,0,0-2.089-.847v2.746h.044a5.928,5.928,0,0,1,2.469,1.066,2.419,2.419,0,0,1,.789,1.95,2.652,2.652,0,0,1-.905,2.081,3.769,3.769,0,0,1-2.4.876v1.052h-.934Zm-1.03-9.428a1.046,1.046,0,0,0-.372.818,1.031,1.031,0,0,0,.292.774,2.964,2.964,0,0,0,1.11.548v-2.527A1.75,1.75,0,0,0,206.744,284.454Zm3.075,6.4a1.127,1.127,0,0,0,.088-1.657,3.181,3.181,0,0,0-1.2-.562v2.629A2.049,2.049,0,0,0,209.819,290.859Z" transform="translate(-204.542 -281.774)" fill="#ffe32e"/>
        </g>
      </g>
      <path id="Path_1271116" data-name="Path 1271116" d="M211.221,287.923a5.928,5.928,0,0,0-2.469-1.066h-.044V284.11a4.624,4.624,0,0,1,1.468.468.825.825,0,0,0,1.06-.242h0a.811.811,0,0,0-.278-1.19,5.914,5.914,0,0,0-2.249-.629v-.745h-.5v12.109h.5V292.83a3.769,3.769,0,0,0,2.4-.876,2.654,2.654,0,0,0,.906-2.081A2.423,2.423,0,0,0,211.221,287.923Zm-1.4,2.936a2.043,2.043,0,0,1-1.11.409v-2.629a3.18,3.18,0,0,1,1.2.562,1.127,1.127,0,0,1-.088,1.657Z" transform="translate(-192.743 -272.361)" fill="#ffc931"/>
    </g>
    <g id="Group_1205010" data-name="Group 1205010" transform="translate(88.603 47.524)">
      <circle id="Ellipse_12669" data-name="Ellipse 12669" cx="12.874" cy="12.874" r="12.874" transform="translate(0 14.622) rotate(-34.604)" fill="#ffe32e"/>
      <path id="Path_1271117" data-name="Path 1271117" d="M174.92,191.072a11.153,11.153,0,0,1,21.7,5.162" transform="translate(-167.865 -175.735)" fill="#ffc931"/>
      <g id="Group_1205007" data-name="Group 1205007" transform="translate(5.948 15.151)">
        <path id="Path_1271118" data-name="Path 1271118" d="M174.139,190.886l1.561.371a10.35,10.35,0,1,0,20.138,4.79l1.562.371a11.955,11.955,0,1,1-23.261-5.533Z" transform="translate(-173.813 -190.886)" fill="#ffc931"/>
      </g>
      <g id="Group_1205009" data-name="Group 1205009" transform="translate(11.899 13.57)">
        <g id="Group_1205008" data-name="Group 1205008">
          <path id="Path_1271119" data-name="Path 1271119" d="M179.98,191.829l1.037.247a6.224,6.224,0,0,1,1.68-2.559.826.826,0,0,1,1.217.126h0a.831.831,0,0,1-.122,1.114,4.67,4.67,0,0,0-1.226,1.687l2.757.656a5.959,5.959,0,0,1,1.568-2.112,2.347,2.347,0,0,1,2.032-.3,2.667,2.667,0,0,1,1.806,1.338,3.578,3.578,0,0,1,.32,2.441l.71.169-.216.91-.725-.172a6.1,6.1,0,0,1-1.769,2.7l-1.088-1.235A4.709,4.709,0,0,0,189.27,195l-2.671-.636-.01.043a5.917,5.917,0,0,1-1.609,2.154,2.42,2.42,0,0,1-2.08.316,2.654,2.654,0,0,1-1.815-1.363,3.765,3.765,0,0,1-.3-2.533l-1.023-.243Zm9.411,1.18a1.046,1.046,0,0,0-.71-.552,1.032,1.032,0,0,0-.821.1,2.964,2.964,0,0,0-.79.953l2.458.585A1.746,1.746,0,0,0,189.391,193.009Zm-6.943,1.509a1.127,1.127,0,0,0,1.592.469,3.186,3.186,0,0,0,.824-1.035l-2.558-.608A2.05,2.05,0,0,0,182.448,194.518Z" transform="translate(-179.764 -189.305)" fill="#ffe32e"/>
        </g>
      </g>
      <path id="Path_1271120" data-name="Path 1271120" d="M184.98,196.562a5.923,5.923,0,0,0,1.609-2.154l.01-.043,2.671.636a4.626,4.626,0,0,1-.794,1.319.825.825,0,0,0-.01,1.087h0a.811.811,0,0,0,1.222,0,5.913,5.913,0,0,0,1.132-2.043l.724.172.116-.487-11.78-2.8-.116.487,1.023.243a3.771,3.771,0,0,0,.3,2.533,2.654,2.654,0,0,0,1.815,1.363A2.42,2.42,0,0,0,184.98,196.562Zm-2.532-2.044a2.045,2.045,0,0,1-.141-1.175l2.558.608a3.179,3.179,0,0,1-.824,1.035,1.127,1.127,0,0,1-1.592-.469Z" transform="translate(-167.865 -175.735)" fill="#ffc931"/>
    </g>
    <g id="Group_1205014" data-name="Group 1205014" transform="translate(242.925 36.136)">
      <circle id="Ellipse_12670" data-name="Ellipse 12670" cx="12.874" cy="12.874" r="12.874" transform="matrix(0.116, -0.993, 0.993, 0.116, 0, 25.575)" fill="#ffe32e"/>
      <path id="Path_1271121" data-name="Path 1271121" d="M328.4,186.331a11.153,11.153,0,1,1,16.134-15.4" transform="translate(-322.187 -164.347)" fill="#ffc931"/>
      <g id="Group_1205011" data-name="Group 1205011" transform="translate(5.628 6.027)">
        <path id="Path_1271122" data-name="Path 1271122" d="M327.815,186.886l1.161-1.109a10.35,10.35,0,1,0,14.973-14.294l1.161-1.109a11.955,11.955,0,0,1-17.294,16.511Z" transform="translate(-327.815 -170.375)" fill="#ffc931"/>
      </g>
      <g id="Group_1205013" data-name="Group 1205013" transform="translate(9.123 9.227)">
        <g id="Group_1205012" data-name="Group 1205012">
          <path id="Path_1271123" data-name="Path 1271123" d="M331.783,182.5l.771-.736a6.22,6.22,0,0,1-1.234-2.8.826.826,0,0,1,.768-.952h0a.831.831,0,0,1,.868.708,4.662,4.662,0,0,0,.749,1.946l2.05-1.956a5.956,5.956,0,0,1-.919-2.465,2.345,2.345,0,0,1,.849-1.871,2.667,2.667,0,0,1,2.105-.788,3.576,3.576,0,0,1,2.222,1.059l.528-.5.645.676-.539.514a6.1,6.1,0,0,1,1.305,2.954l-1.627.241a4.706,4.706,0,0,0-.83-2.1l-1.986,1.9.031.032a5.928,5.928,0,0,1,.934,2.521,2.419,2.419,0,0,1-.866,1.917,2.653,2.653,0,0,1-2.131.782,3.768,3.768,0,0,1-2.288-1.127l-.761.726Zm6.109-7.256a1.047,1.047,0,0,0-.849.3,1.03,1.03,0,0,0-.358.746,2.968,2.968,0,0,0,.37,1.181l1.828-1.745A1.749,1.749,0,0,0,337.892,175.241Zm-2.51,6.647a1.127,1.127,0,0,0,1.259-1.081,3.177,3.177,0,0,0-.421-1.255l-1.9,1.815A2.05,2.05,0,0,0,335.382,181.888Z" transform="translate(-331.31 -173.574)" fill="#ffe32e"/>
        </g>
      </g>
      <path id="Path_1271124" data-name="Path 1271124" d="M338.474,180.875a5.919,5.919,0,0,0-.934-2.521l-.031-.032,1.986-1.9a4.617,4.617,0,0,1,.675,1.385.825.825,0,0,0,.907.6h0a.811.811,0,0,0,.669-1.023,5.908,5.908,0,0,0-1.1-2.061l.539-.514-.346-.362-8.758,8.362.346.362.761-.727a3.772,3.772,0,0,0,2.288,1.128,2.653,2.653,0,0,0,2.131-.782A2.422,2.422,0,0,0,338.474,180.875Zm-3.092,1.013a2.043,2.043,0,0,1-1.063-.521l1.9-1.815a3.186,3.186,0,0,1,.421,1.255,1.127,1.127,0,0,1-1.26,1.081Z" transform="translate(-322.187 -164.347)" fill="#ffc931"/>
    </g>
    <g id="Group_1205018" data-name="Group 1205018" transform="translate(205.5 169.276)">
      <circle id="Ellipse_12671" data-name="Ellipse 12671" cx="11.91" cy="11.91" r="11.91" transform="translate(0 3.871) rotate(-9.352)" fill="#ffe32e"/>
      <path id="Path_1271125" data-name="Path 1271125" d="M307.074,305.49a10.317,10.317,0,0,1-17.23,11.354" transform="translate(-284.763 -297.488)" fill="#ffc931"/>
      <g id="Group_1205015" data-name="Group 1205015" transform="translate(2.64 2.623)">
        <path id="Path_1271126" data-name="Path 1271126" d="M307.694,305.082l-1.24.817a9.575,9.575,0,0,0-15.991,10.537l-1.24.817a11.06,11.06,0,1,1,18.47-12.171Z" transform="translate(-287.403 -300.111)" fill="#ffc931"/>
      </g>
      <g id="Group_1205017" data-name="Group 1205017" transform="translate(8.641 9.253)">
        <g id="Group_1205016" data-name="Group 1205016">
          <path id="Path_1271127" data-name="Path 1271127" d="M303.357,308.421l-.824.543a5.753,5.753,0,0,1,.66,2.754.764.764,0,0,1-.856.74h0a.769.769,0,0,1-.674-.788,4.321,4.321,0,0,0-.36-1.9l-2.189,1.442a5.522,5.522,0,0,1,.43,2.4,2.17,2.17,0,0,1-1.082,1.563,2.467,2.467,0,0,1-2.046.369,3.307,3.307,0,0,1-1.848-1.331l-.564.372-.476-.722.576-.379a5.653,5.653,0,0,1-.7-2.9l1.522.049a4.362,4.362,0,0,0,.409,2.045l2.121-1.4-.022-.034a5.479,5.479,0,0,1-.433-2.449,2.238,2.238,0,0,1,1.1-1.6,2.454,2.454,0,0,1,2.069-.36,3.486,3.486,0,0,1,1.9,1.4l.812-.536Zm-6.759,5.595a.968.968,0,0,0,.822-.129.954.954,0,0,0,.449-.62,2.739,2.739,0,0,0-.142-1.136l-1.952,1.286A1.613,1.613,0,0,0,296.6,314.016Zm3.383-5.635a1.043,1.043,0,0,0-1.325.776,2.945,2.945,0,0,0,.175,1.211l2.031-1.338A1.9,1.9,0,0,0,299.98,308.38Z" transform="translate(-293.403 -306.74)" fill="#ffe32e"/>
        </g>
      </g>
      <path id="Path_1271128" data-name="Path 1271128" d="M297,308.792a5.485,5.485,0,0,0,.433,2.449l.022.034-2.121,1.4a4.287,4.287,0,0,1-.386-1.372.763.763,0,0,0-.727-.7h0a.75.75,0,0,0-.777.821,5.47,5.47,0,0,0,.66,2.058l-.576.379.255.387,9.353-6.163-.255-.387-.812.536a3.483,3.483,0,0,0-1.9-1.4,2.455,2.455,0,0,0-2.069.36A2.234,2.234,0,0,0,297,308.792Zm2.982-.411a1.888,1.888,0,0,1,.881.649l-2.031,1.338a2.945,2.945,0,0,1-.175-1.211,1.044,1.044,0,0,1,1.325-.776Z" transform="translate(-284.763 -297.488)" fill="#ffc931"/>
    </g>
    <g id="Group_1205022" data-name="Group 1205022" transform="translate(101.455 161.458)">
      <circle id="Ellipse_12672" data-name="Ellipse 12672" cx="11.91" cy="11.91" r="11.91" transform="translate(0 23.791) rotate(-87.186)" fill="#ffe32e"/>
      <path id="Path_1271129" data-name="Path 1271129" d="M201.807,296.466a10.317,10.317,0,1,1-17.23,11.354" transform="translate(-180.717 -289.669)" fill="#ffc931"/>
      <g id="Group_1205019" data-name="Group 1205019" transform="translate(1.418 1.417)">
        <path id="Path_1271130" data-name="Path 1271130" d="M202.426,296.058l-1.24.817A9.575,9.575,0,1,0,185.2,307.412l-1.24.817a11.06,11.06,0,1,1,18.47-12.171Z" transform="translate(-182.135 -291.086)" fill="#ffc931"/>
      </g>
      <g id="Group_1205021" data-name="Group 1205021" transform="translate(7.418 8.047)">
        <g id="Group_1205020" data-name="Group 1205020">
          <path id="Path_1271131" data-name="Path 1271131" d="M198.089,299.4l-.824.543a5.759,5.759,0,0,1,.66,2.754.764.764,0,0,1-.856.74h0a.769.769,0,0,1-.674-.788,4.321,4.321,0,0,0-.36-1.9l-2.189,1.442a5.522,5.522,0,0,1,.43,2.4,2.17,2.17,0,0,1-1.082,1.563,2.467,2.467,0,0,1-2.046.369,3.306,3.306,0,0,1-1.848-1.331l-.564.372-.476-.722.576-.379a5.647,5.647,0,0,1-.7-2.9l1.522.049a4.362,4.362,0,0,0,.409,2.045l2.121-1.4-.022-.034a5.478,5.478,0,0,1-.433-2.449,2.238,2.238,0,0,1,1.1-1.6,2.454,2.454,0,0,1,2.069-.36,3.486,3.486,0,0,1,1.9,1.4l.812-.536Zm-6.759,5.595a.968.968,0,0,0,.821-.128.953.953,0,0,0,.449-.62,2.747,2.747,0,0,0-.142-1.136l-1.952,1.286A1.614,1.614,0,0,0,191.33,304.991Zm3.382-5.635a1.043,1.043,0,0,0-1.325.776,2.944,2.944,0,0,0,.175,1.211l2.031-1.338A1.894,1.894,0,0,0,194.713,299.356Z" transform="translate(-188.135 -297.716)" fill="#ffe32e"/>
        </g>
      </g>
      <path id="Path_1271132" data-name="Path 1271132" d="M191.731,299.767a5.477,5.477,0,0,0,.433,2.449l.022.034-2.121,1.4a4.288,4.288,0,0,1-.386-1.372.764.764,0,0,0-.727-.7h0a.75.75,0,0,0-.777.821,5.469,5.469,0,0,0,.66,2.058l-.576.379.255.387,9.353-6.163-.255-.387-.812.536a3.487,3.487,0,0,0-1.9-1.4,2.455,2.455,0,0,0-2.069.36A2.237,2.237,0,0,0,191.731,299.767Zm2.982-.411a1.888,1.888,0,0,1,.881.65l-2.031,1.338a2.944,2.944,0,0,1-.175-1.211,1.044,1.044,0,0,1,1.325-.776Z" transform="translate(-180.717 -289.669)" fill="#ffc931"/>
    </g>
    <g id="Group_1205026" data-name="Group 1205026" transform="translate(49.143 58.008)">
      <circle id="Ellipse_12673" data-name="Ellipse 12673" cx="11.91" cy="11.91" r="11.91" transform="translate(0 18.548) rotate(-51.142)" fill="#ffe32e"/>
      <path id="Path_1271133" data-name="Path 1271133" d="M151.378,211.2a10.317,10.317,0,1,1-12.455-16.452" transform="translate(-128.406 -186.22)" fill="#ffc931"/>
      <g id="Group_1205023" data-name="Group 1205023" transform="translate(10.07 5.698)">
        <path id="Path_1271134" data-name="Path 1271134" d="M151.826,211.791l-.9-1.184a9.575,9.575,0,1,0-11.558-15.268l-.9-1.184a11.06,11.06,0,1,1,13.35,17.636Z" transform="translate(-138.476 -191.918)" fill="#ffc931"/>
      </g>
      <g id="Group_1205025" data-name="Group 1205025" transform="translate(12.199 11.669)">
        <g id="Group_1205024" data-name="Group 1205024">
          <path id="Path_1271135" data-name="Path 1271135" d="M148.212,207.681l-.6-.786a5.758,5.758,0,0,1-2.7.838.765.765,0,0,1-.794-.806h0a.768.768,0,0,1,.743-.723,4.319,4.319,0,0,0,1.868-.483l-1.582-2.09a5.51,5.51,0,0,1-2.362.585,2.17,2.17,0,0,1-1.63-.977,2.467,2.467,0,0,1-.5-2.018,3.308,3.308,0,0,1,1.207-1.931l-.408-.539.69-.522.416.549a5.648,5.648,0,0,1,2.853-.889l.05,1.522a4.355,4.355,0,0,0-2.014.541l1.533,2.026.032-.025a5.477,5.477,0,0,1,2.416-.592,2.237,2.237,0,0,1,1.67,1,2.456,2.456,0,0,1,.494,2.04,3.484,3.484,0,0,1-1.278,1.984l.587.776Zm-6.024-6.379a.969.969,0,0,0,.182.812.953.953,0,0,0,.648.408,2.741,2.741,0,0,0,1.125-.216l-1.411-1.864A1.617,1.617,0,0,0,142.187,201.3Zm5.844,3.008a1.043,1.043,0,0,0-.861-1.272,2.948,2.948,0,0,0-1.2.254l1.468,1.939A1.9,1.9,0,0,0,148.031,204.309Z" transform="translate(-140.605 -197.888)" fill="#ffe32e"/>
        </g>
      </g>
      <path id="Path_1271136" data-name="Path 1271136" d="M147.426,201.361a5.477,5.477,0,0,0-2.416.592l-.032.025-1.533-2.026a4.288,4.288,0,0,1,1.343-.475.763.763,0,0,0,.647-.77h0a.75.75,0,0,0-.869-.722,5.473,5.473,0,0,0-2.01.792l-.416-.549-.369.28,6.761,8.931.369-.28-.587-.776a3.487,3.487,0,0,0,1.278-1.984,2.453,2.453,0,0,0-.494-2.04A2.235,2.235,0,0,0,147.426,201.361Zm.605,2.948a1.888,1.888,0,0,1-.59.921l-1.468-1.939a2.95,2.95,0,0,1,1.2-.254,1.043,1.043,0,0,1,.861,1.272Z" transform="translate(-128.406 -186.22)" fill="#ffc931"/>
    </g>
    <g id="Group_1205030" data-name="Group 1205030" transform="translate(0 71.536)">
      <circle id="Ellipse_12674" data-name="Ellipse 12674" cx="11.91" cy="11.91" r="11.91" transform="matrix(0.009, -1, 1, 0.009, 0, 23.819)" fill="#ffe32e"/>
      <path id="Path_1271137" data-name="Path 1271137" d="M99.89,206.1a10.317,10.317,0,0,1-17.23,11.354" transform="translate(-79.262 -199.747)" fill="#ffc931"/>
      <g id="Group_1205027" data-name="Group 1205027" transform="translate(0.957 0.972)">
        <path id="Path_1271138" data-name="Path 1271138" d="M100.51,205.69l-1.24.817A9.575,9.575,0,0,0,83.28,217.044l-1.24.817a11.06,11.06,0,1,1,18.47-12.171Z" transform="translate(-80.219 -200.719)" fill="#ffc931"/>
      </g>
      <g id="Group_1205029" data-name="Group 1205029" transform="translate(6.957 7.601)">
        <g id="Group_1205028" data-name="Group 1205028">
          <path id="Path_1271139" data-name="Path 1271139" d="M96.173,209.029l-.824.542a5.759,5.759,0,0,1,.66,2.754.764.764,0,0,1-.856.74h0a.769.769,0,0,1-.674-.788,4.321,4.321,0,0,0-.36-1.9l-2.189,1.442a5.522,5.522,0,0,1,.43,2.4,2.17,2.17,0,0,1-1.082,1.563,2.467,2.467,0,0,1-2.046.369,3.308,3.308,0,0,1-1.848-1.331l-.564.372-.476-.722.576-.379a5.652,5.652,0,0,1-.7-2.9l1.522.049a4.362,4.362,0,0,0,.409,2.045l2.121-1.4-.022-.034a5.479,5.479,0,0,1-.433-2.449,2.238,2.238,0,0,1,1.1-1.6,2.454,2.454,0,0,1,2.069-.36,3.486,3.486,0,0,1,1.9,1.4l.813-.536Zm-6.759,5.6a.967.967,0,0,0,.821-.129.954.954,0,0,0,.449-.62,2.738,2.738,0,0,0-.142-1.136l-1.952,1.286A1.622,1.622,0,0,0,89.414,214.624Zm3.383-5.635a1.043,1.043,0,0,0-1.325.776,2.944,2.944,0,0,0,.175,1.211l2.031-1.338A1.89,1.89,0,0,0,92.8,208.989Z" transform="translate(-86.22 -207.348)" fill="#ffe32e"/>
        </g>
      </g>
      <path id="Path_1271140" data-name="Path 1271140" d="M89.815,209.4a5.485,5.485,0,0,0,.433,2.449l.022.034-2.121,1.4a4.288,4.288,0,0,1-.386-1.372.763.763,0,0,0-.727-.7h0a.75.75,0,0,0-.777.821,5.469,5.469,0,0,0,.66,2.058l-.576.379.255.387,9.353-6.163-.255-.387-.813.536a3.485,3.485,0,0,0-1.9-1.4,2.455,2.455,0,0,0-2.069.36A2.238,2.238,0,0,0,89.815,209.4Zm2.982-.411a1.891,1.891,0,0,1,.881.649l-2.031,1.338a2.944,2.944,0,0,1-.175-1.211,1.044,1.044,0,0,1,1.325-.776Z" transform="translate(-79.262 -199.747)" fill="#ffc931"/>
    </g>
    <g id="Group_1205034" data-name="Group 1205034" transform="translate(42.408 32.285)">
      <circle id="Ellipse_12675" data-name="Ellipse 12675" cx="12.797" cy="12.797" r="12.797" transform="matrix(0.218, -0.976, 0.976, 0.218, 0, 24.98)" fill="#ffe32e"/>
      <path id="Path_1271141" data-name="Path 1271141" d="M131.053,166.394a11.087,11.087,0,0,1,11.794,18.777" transform="translate(-121.67 -160.496)" fill="#ffc931"/>
      <g id="Group_1205031" data-name="Group 1205031" transform="translate(3.398 5.222)">
        <path id="Path_1271142" data-name="Path 1271142" d="M130.628,165.718l.849,1.351a10.289,10.289,0,1,0,10.945,17.425l.849,1.351a11.884,11.884,0,1,1-12.642-20.127Z" transform="translate(-125.068 -165.718)" fill="#ffc931"/>
      </g>
      <g id="Group_1205033" data-name="Group 1205033" transform="translate(10.547 9.96)">
        <g id="Group_1205032" data-name="Group 1205032">
          <path id="Path_1271143" data-name="Path 1271143" d="M134.114,170.456l.564.9a6.185,6.185,0,0,1,2.974-.645.821.821,0,0,1,.775.937h0a.826.826,0,0,1-.862.705,4.64,4.64,0,0,0-2.045.342l1.5,2.385a5.918,5.918,0,0,1,2.583-.4,2.331,2.331,0,0,1,1.653,1.2,2.65,2.65,0,0,1,.349,2.207,3.555,3.555,0,0,1-1.473,1.954l.386.615-.787.494-.394-.627a6.066,6.066,0,0,1-3.137.684l.089-1.633a4.676,4.676,0,0,0,2.206-.392l-1.452-2.311-.037.023a5.888,5.888,0,0,1-2.642.408,2.4,2.4,0,0,1-1.695-1.224,2.637,2.637,0,0,1-.338-2.231,3.744,3.744,0,0,1,1.553-2l-.556-.885Zm5.852,7.392a1.041,1.041,0,0,0-.119-.885,1.025,1.025,0,0,0-.655-.5,2.95,2.95,0,0,0-1.224.126l1.336,2.127A1.736,1.736,0,0,0,139.966,177.848Zm-5.974-3.766a1.121,1.121,0,0,0,.8,1.442,3.161,3.161,0,0,0,1.305-.16l-1.39-2.213A2.031,2.031,0,0,0,133.991,174.083Z" transform="translate(-132.217 -170.456)" fill="#ffe32e"/>
        </g>
      </g>
      <path id="Path_1271144" data-name="Path 1271144" d="M134.363,177.3a5.888,5.888,0,0,0,2.642-.408l.037-.023,1.452,2.311a4.582,4.582,0,0,1-1.482.382.82.82,0,0,0-.765.764h0a.806.806,0,0,0,.863.854,5.88,5.88,0,0,0,2.226-.66l.394.627.422-.265-6.4-10.193-.422.265.556.885a3.746,3.746,0,0,0-1.553,2,2.637,2.637,0,0,0,.338,2.231A2.407,2.407,0,0,0,134.363,177.3Zm-.372-3.213a2.035,2.035,0,0,1,.718-.931l1.39,2.213a3.161,3.161,0,0,1-1.305.16,1.12,1.12,0,0,1-.8-1.442Z" transform="translate(-121.67 -160.496)" fill="#ffc931"/>
    </g>
    <g id="Group_1205038" data-name="Group 1205038" transform="translate(30.501 13.373)">
      <circle id="Ellipse_12676" data-name="Ellipse 12676" cx="12.797" cy="12.797" r="12.797" transform="translate(0 23.626) rotate(-67.381)" fill="#ffe32e"/>
      <path id="Path_1271145" data-name="Path 1271145" d="M131.466,148.4a11.087,11.087,0,1,1-9.944,19.819" transform="translate(-109.764 -141.584)" fill="#ffc931"/>
      <g id="Group_1205035" data-name="Group 1205035" transform="translate(4.847 4.846)">
        <path id="Path_1271146" data-name="Path 1271146" d="M131.823,147.692l-.715,1.426a10.289,10.289,0,1,0-9.228,18.392l-.715,1.426a11.884,11.884,0,0,1,10.659-21.245Z" transform="translate(-114.61 -146.431)" fill="#ffc931"/>
      </g>
      <g id="Group_1205037" data-name="Group 1205037" transform="translate(11.708 11.127)">
        <g id="Group_1205036" data-name="Group 1205036">
          <path id="Path_1271147" data-name="Path 1271147" d="M129.578,153.128l-.475.947a6.182,6.182,0,0,1,2.092,2.209.821.821,0,0,1-.4,1.149h0a.827.827,0,0,1-1.05-.372,4.633,4.633,0,0,0-1.352-1.571l-1.263,2.518a5.917,5.917,0,0,1,1.685,2,2.333,2.333,0,0,1-.168,2.035,2.651,2.651,0,0,1-1.707,1.442,3.557,3.557,0,0,1-2.435-.247l-.325.649-.83-.417.332-.662a6.066,6.066,0,0,1-2.211-2.328l1.443-.771a4.677,4.677,0,0,0,1.478,1.684l1.224-2.44-.039-.02a5.891,5.891,0,0,1-1.718-2.048,2.4,2.4,0,0,1,.169-2.084,2.638,2.638,0,0,1,1.732-1.446,3.75,3.75,0,0,1,2.519.289l.469-.935Zm-3.288,8.836a1.04,1.04,0,0,0,.7-.561,1.025,1.025,0,0,0,.086-.818,2.943,2.943,0,0,0-.742-.982l-1.126,2.245A1.731,1.731,0,0,0,126.29,161.964Zm.124-7.061a1.121,1.121,0,0,0-.817,1.434,3.163,3.163,0,0,0,.814,1.034l1.172-2.336A2.031,2.031,0,0,0,126.414,154.9Z" transform="translate(-121.471 -152.711)" fill="#ffe32e"/>
        </g>
      </g>
      <path id="Path_1271148" data-name="Path 1271148" d="M123.859,156.886a5.885,5.885,0,0,0,1.718,2.047l.039.019-1.224,2.44a4.591,4.591,0,0,1-1.1-1.07.82.82,0,0,0-1.05-.258h0a.806.806,0,0,0-.283,1.181,5.879,5.879,0,0,0,1.718,1.561l-.332.662.445.223,5.4-10.758-.445-.223-.469.935a3.743,3.743,0,0,0-2.519-.289,2.638,2.638,0,0,0-1.732,1.446A2.407,2.407,0,0,0,123.859,156.886Zm2.555-1.983a2.029,2.029,0,0,1,1.168.132l-1.172,2.336a3.17,3.17,0,0,1-.814-1.034,1.121,1.121,0,0,1,.817-1.434Z" transform="translate(-109.764 -141.584)" fill="#ffc931"/>
    </g>
    <g id="Group_1205042" data-name="Group 1205042" transform="translate(64.444)">
      <circle id="Ellipse_12677" data-name="Ellipse 12677" cx="12.797" cy="12.797" r="12.797" transform="translate(0 22.605) rotate(-62.031)" fill="#ffe32e"/>
      <path id="Path_1271149" data-name="Path 1271149" d="M160.13,134.464a11.087,11.087,0,0,1,1.761,22.1" transform="translate(-143.707 -128.211)" fill="#ffc931"/>
      <g id="Group_1205039" data-name="Group 1205039" transform="translate(5.419 5.457)">
        <path id="Path_1271150" data-name="Path 1271150" d="M160.067,133.669l.127,1.591a10.289,10.289,0,1,0,1.634,20.512l.127,1.591a11.884,11.884,0,1,1-1.887-23.694Z" transform="translate(-149.125 -133.669)" fill="#ffc931"/>
      </g>
      <g id="Group_1205041" data-name="Group 1205041" transform="translate(13.364 11.271)">
        <g id="Group_1205040" data-name="Group 1205040">
          <path id="Path_1271151" data-name="Path 1271151" d="M160.963,139.482l.084,1.057a6.178,6.178,0,0,1,2.934.806.821.821,0,0,1,.253,1.189h0a.826.826,0,0,1-1.091.226,4.639,4.639,0,0,0-1.971-.643l.224,2.808a5.931,5.931,0,0,1,2.477.837,2.331,2.331,0,0,1,.911,1.828,2.651,2.651,0,0,1-.713,2.118,3.555,3.555,0,0,1-2.211,1.05l.058.724-.926.074-.059-.738a6.072,6.072,0,0,1-3.1-.846l.835-1.407a4.679,4.679,0,0,0,2.137.675l-.217-2.721-.043,0a5.887,5.887,0,0,1-2.53-.862,2.406,2.406,0,0,1-.936-1.87,2.637,2.637,0,0,1,.733-2.134,3.748,3.748,0,0,1,2.3-1.058l-.083-1.042Zm1.764,9.261a1.04,1.04,0,0,0,.3-.84,1.024,1.024,0,0,0-.35-.744,2.946,2.946,0,0,0-1.143-.455l.2,2.5A1.734,1.734,0,0,0,162.727,148.743Zm-3.552-6.1a1.12,1.12,0,0,0,.044,1.649,3.165,3.165,0,0,0,1.231.463l-.208-2.605A2.028,2.028,0,0,0,159.175,142.64Z" transform="translate(-157.07 -139.482)" fill="#ffe32e"/>
        </g>
      </g>
      <path id="Path_1271152" data-name="Path 1271152" d="M158.018,145.659a5.889,5.889,0,0,0,2.53.862l.043,0,.217,2.721a4.593,4.593,0,0,1-1.491-.348.821.821,0,0,0-1.031.323h0a.806.806,0,0,0,.37,1.157,5.88,5.88,0,0,0,2.279.445l.059.738.5-.04-.956-12-.5.04.083,1.042a3.745,3.745,0,0,0-2.3,1.058,2.636,2.636,0,0,0-.733,2.134A2.406,2.406,0,0,0,158.018,145.659Zm1.158-3.02a2.032,2.032,0,0,1,1.068-.493l.208,2.605a3.157,3.157,0,0,1-1.231-.463,1.122,1.122,0,0,1-.044-1.65Z" transform="translate(-143.707 -128.211)" fill="#ffc931"/>
    </g>
  </g>
  <g id="Group_1205057" data-name="Group 1205057" transform="translate(36.649 17.719)">
    <path id="Path_1271153" data-name="Path 1271153" d="M169.942,363.355H97.48a8.635,8.635,0,0,1-8.61-8.61V244.862a8.635,8.635,0,0,1,8.61-8.61h72.463a8.635,8.635,0,0,1,8.61,8.61V354.745A8.636,8.636,0,0,1,169.942,363.355Z" transform="translate(-88.869 -55.884)" fill="#526180"/>
    <path id="Path_1271154" data-name="Path 1271154" d="M170.181,236.252H97.242a8.4,8.4,0,0,0-8.372,8.372V268.39h89.683V244.624A8.4,8.4,0,0,0,170.181,236.252Z" transform="translate(-88.869 -55.884)" fill="#434b4e"/>
    <path id="Path_1271155" data-name="Path 1271155" d="M163.569,264.2H103.853a7.1,7.1,0,0,1-7.074-7.074v-5.658a7.1,7.1,0,0,1,7.074-7.074h59.717a7.1,7.1,0,0,1,7.074,7.074v5.658A7.1,7.1,0,0,1,163.569,264.2Z" transform="translate(-88.869 -55.884)" fill="#f8df4e"/>
    <path id="Path_1271156" data-name="Path 1271156" d="M122.5,264.2h14.47l12.894-19.807h-14.47Z" transform="translate(-88.869 -55.884)" fill="#fff" opacity="0.57"/>
    <path id="Path_1271157" data-name="Path 1271157" d="M145.264,264.2l12.894-19.807h-5.532L139.731,264.2Z" transform="translate(-88.869 -55.884)" fill="#fff" opacity="0.57"/>
    <path id="Path_1271158" data-name="Path 1271158" d="M108.005,288.509H102.23a5.469,5.469,0,0,1-5.453-5.452V278.7a5.468,5.468,0,0,1,5.453-5.452h5.775a5.469,5.469,0,0,1,5.453,5.452v4.361A5.469,5.469,0,0,1,108.005,288.509Z" transform="translate(-88.869 -55.884)" fill="#9ba5a6"/>
    <path id="Path_1271159" data-name="Path 1271159" d="M145.786,357.348H102.231a5.469,5.469,0,0,1-5.453-5.453v-4.361a5.468,5.468,0,0,1,5.453-5.452h43.555a5.468,5.468,0,0,1,5.452,5.452V351.9A5.469,5.469,0,0,1,145.786,357.348Z" transform="translate(-88.869 -55.884)" fill="#5acffa"/>
    <path id="Path_1271160" data-name="Path 1271160" d="M126.9,288.509h-5.775a5.469,5.469,0,0,1-5.453-5.452V278.7a5.468,5.468,0,0,1,5.453-5.452H126.9a5.469,5.469,0,0,1,5.453,5.452v4.361A5.468,5.468,0,0,1,126.9,288.509Z" transform="translate(-88.869 -55.884)" fill="#9ba5a6"/>
    <path id="Path_1271161" data-name="Path 1271161" d="M145.786,288.509h-5.775a5.469,5.469,0,0,1-5.453-5.452V278.7a5.468,5.468,0,0,1,5.453-5.452h5.775a5.468,5.468,0,0,1,5.452,5.452v4.361A5.468,5.468,0,0,1,145.786,288.509Z" transform="translate(-88.869 -55.884)" fill="#9ba5a6"/>
    <path id="Path_1271162" data-name="Path 1271162" d="M164.687,305.613h-4.765a5.975,5.975,0,0,1-5.957-5.957V279.2a5.975,5.975,0,0,1,5.957-5.957h4.765a5.975,5.975,0,0,1,5.957,5.957v20.455A5.975,5.975,0,0,1,164.687,305.613Z" transform="translate(-88.869 -55.884)" fill="#f7e054"/>
    <path id="Path_1271163" data-name="Path 1271163" d="M165.191,322.716h-5.775a5.469,5.469,0,0,1-5.453-5.452V312.9a5.469,5.469,0,0,1,5.453-5.453h5.775a5.469,5.469,0,0,1,5.453,5.453v4.361A5.469,5.469,0,0,1,165.191,322.716Z" transform="translate(-88.869 -55.884)" fill="#5acffa"/>
    <path id="Path_1271164" data-name="Path 1271164" d="M165.191,339.82h-5.775a5.469,5.469,0,0,1-5.453-5.453v-4.361a5.469,5.469,0,0,1,5.453-5.453h5.775a5.469,5.469,0,0,1,5.453,5.453v4.361A5.469,5.469,0,0,1,165.191,339.82Z" transform="translate(-88.869 -55.884)" fill="#5acffa"/>
    <path id="Path_1271165" data-name="Path 1271165" d="M108.005,305.613H102.23a5.469,5.469,0,0,1-5.453-5.453V295.8a5.469,5.469,0,0,1,5.453-5.453h5.775a5.469,5.469,0,0,1,5.453,5.453v4.361A5.469,5.469,0,0,1,108.005,305.613Z" transform="translate(-88.869 -55.884)" fill="#9ba5a6"/>
    <path id="Path_1271166" data-name="Path 1271166" d="M126.9,305.613h-5.775a5.469,5.469,0,0,1-5.453-5.453V295.8a5.469,5.469,0,0,1,5.453-5.453H126.9a5.469,5.469,0,0,1,5.453,5.453v4.361A5.468,5.468,0,0,1,126.9,305.613Z" transform="translate(-88.869 -55.884)" fill="#9ba5a6"/>
    <path id="Path_1271167" data-name="Path 1271167" d="M145.786,305.613h-5.775a5.469,5.469,0,0,1-5.453-5.453V295.8a5.469,5.469,0,0,1,5.453-5.453h5.775a5.468,5.468,0,0,1,5.452,5.453v4.361A5.468,5.468,0,0,1,145.786,305.613Z" transform="translate(-88.869 -55.884)" fill="#9ba5a6"/>
    <path id="Path_1271168" data-name="Path 1271168" d="M108.005,322.716H102.23a5.469,5.469,0,0,1-5.453-5.452V312.9a5.469,5.469,0,0,1,5.453-5.453h5.775a5.469,5.469,0,0,1,5.453,5.453v4.361A5.469,5.469,0,0,1,108.005,322.716Z" transform="translate(-88.869 -55.884)" fill="#9ba5a6"/>
    <path id="Path_1271169" data-name="Path 1271169" d="M126.9,322.716h-5.775a5.469,5.469,0,0,1-5.453-5.452V312.9a5.469,5.469,0,0,1,5.453-5.453H126.9a5.469,5.469,0,0,1,5.453,5.453v4.361A5.468,5.468,0,0,1,126.9,322.716Z" transform="translate(-88.869 -55.884)" fill="#9ba5a6"/>
    <path id="Path_1271170" data-name="Path 1271170" d="M145.786,322.716h-5.775a5.469,5.469,0,0,1-5.453-5.452V312.9a5.469,5.469,0,0,1,5.453-5.453h5.775a5.468,5.468,0,0,1,5.452,5.453v4.361A5.468,5.468,0,0,1,145.786,322.716Z" transform="translate(-88.869 -55.884)" fill="#9ba5a6"/>
    <path id="Path_1271171" data-name="Path 1271171" d="M108.005,339.82H102.23a5.469,5.469,0,0,1-5.453-5.453v-4.361a5.469,5.469,0,0,1,5.453-5.453h5.775a5.469,5.469,0,0,1,5.453,5.453v4.361A5.469,5.469,0,0,1,108.005,339.82Z" transform="translate(-88.869 -55.884)" fill="#9ba5a6"/>
    <path id="Path_1271172" data-name="Path 1271172" d="M126.9,339.82h-5.775a5.469,5.469,0,0,1-5.453-5.453v-4.361a5.469,5.469,0,0,1,5.453-5.453H126.9a5.469,5.469,0,0,1,5.453,5.453v4.361A5.469,5.469,0,0,1,126.9,339.82Z" transform="translate(-88.869 -55.884)" fill="#f18d51"/>
    <path id="Path_1271173" data-name="Path 1271173" d="M145.786,339.82h-5.775a5.469,5.469,0,0,1-5.453-5.453v-4.361a5.469,5.469,0,0,1,5.453-5.453h5.775a5.468,5.468,0,0,1,5.452,5.453v4.361A5.469,5.469,0,0,1,145.786,339.82Z" transform="translate(-88.869 -55.884)" fill="#9ba5a6"/>
    <g id="Group_1205044" data-name="Group 1205044" transform="translate(25.251 192.72)">
      <path id="Path_1271174" data-name="Path 1271174" d="M119.505,259.84h-4.682a.879.879,0,0,1-.7-.78l1.3-.469h3.746Zm-3.246-9.675-.3,2.965-1.03.936-.281-.312.406-4.057Zm4.245-.312h-4.2l-1.2-.469a1.147,1.147,0,0,1,.858-.78H121.1Zm-.531,3.745.562.624-.687.624h-4.057l-.562-.624.686-.624Zm.859.781.281.312-.437,4.37a1.147,1.147,0,0,1-.858.78l-.343-1.249.327-3.277Z" transform="translate(-114.121 -248.604)" fill="#1d353d"/>
      <path id="Path_1271175" data-name="Path 1271175" d="M127.62,259.84h-4.682a.879.879,0,0,1-.7-.78l1.3-.469h3.746Zm-5.353-1.092.406-4.057.343-.312.843.936-.3,2.965Zm2.107-8.583-.3,2.965-1.03.936-.281-.312.406-4.057Zm3.777-.312h-3.729l-1.2-.469a1.147,1.147,0,0,1,.858-.78h4.666Zm.8,4.526.281.312-.437,4.37a1.147,1.147,0,0,1-.858.78l-.343-1.249.327-3.277Zm-.812-1.249.328-3.277.593-1.249a.879.879,0,0,1,.7.78l-.437,4.37-.343.312Z" transform="translate(-114.121 -248.604)" fill="#1d353d"/>
      <path id="Path_1271176" data-name="Path 1271176" d="M135.735,259.84h-4.682a.879.879,0,0,1-.7-.78l1.3-.469h3.746Zm-5.353-1.092.406-4.057.343-.312.843.936-.3,2.965Zm2.107-8.583-.3,2.965-1.03.936-.281-.312.406-4.057Zm3.777-.312h-3.729l-1.2-.469a1.147,1.147,0,0,1,.858-.78h4.666Zm.8,4.526.281.312-.437,4.37a1.147,1.147,0,0,1-.858.78l-.343-1.249.327-3.277Zm-.812-1.249.328-3.277.593-1.249a.879.879,0,0,1,.7.78l-.437,4.37-.343.312Z" transform="translate(-114.121 -248.604)" fill="#1d353d"/>
      <path id="Path_1271177" data-name="Path 1271177" d="M139.511,261.089l-.687.624-.562-.624.25-2.5h1.248Z" transform="translate(-114.121 -248.604)" fill="#1d353d"/>
      <path id="Path_1271178" data-name="Path 1271178" d="M146.658,259.84h-4.682a.879.879,0,0,1-.7-.78l1.3-.469h3.746Zm-5.352-1.092.406-4.057.343-.312.843.936-.3,2.965Zm2.106-8.583-.3,2.965-1.03.936-.281-.312.406-4.057Zm3.777-.312H143.46l-1.2-.469a1.147,1.147,0,0,1,.858-.78h4.666Zm.8,4.526.281.312-.437,4.37a1.147,1.147,0,0,1-.858.78l-.343-1.249.327-3.277Zm-.812-1.249.328-3.277.593-1.249a.878.878,0,0,1,.7.78l-.437,4.37-.343.312Z" transform="translate(-114.121 -248.604)" fill="#1d353d"/>
      <path id="Path_1271179" data-name="Path 1271179" d="M154.773,259.84h-4.682a.879.879,0,0,1-.7-.78l1.3-.469h3.746Zm-5.352-1.092.406-4.057.343-.312.843.936-.3,2.965Zm2.106-8.583-.3,2.965-1.03.936-.281-.312.406-4.057Zm3.777-.312h-3.729l-1.2-.469a1.147,1.147,0,0,1,.858-.78H155.9Zm.8,4.526.281.312-.437,4.37a1.147,1.147,0,0,1-.858.78l-.343-1.249.327-3.277Zm-.812-1.249.328-3.277.593-1.249a.878.878,0,0,1,.7.78l-.437,4.37-.343.312Z" transform="translate(-114.121 -248.604)" fill="#1d353d"/>
      <path id="Path_1271180" data-name="Path 1271180" d="M162.888,259.84h-4.682a.879.879,0,0,1-.7-.78l1.3-.469h3.746Zm-5.352-1.092.406-4.057.343-.312.843.936-.3,2.965Zm2.106-8.583-.3,2.965-1.03.936-.281-.312.406-4.057Zm3.777-.312h-3.729l-1.2-.469a1.147,1.147,0,0,1,.858-.78h4.666Zm.8,4.526.281.312-.437,4.37a1.147,1.147,0,0,1-.858.78l-.343-1.249.327-3.277Zm-.812-1.249.328-3.277.593-1.249a.879.879,0,0,1,.7.78l-.437,4.37-.343.312Z" transform="translate(-114.121 -248.604)" fill="#1d353d"/>
    </g>
    <g id="Group_1205045" data-name="Group 1205045" transform="translate(14.309 220.92)">
      <path id="Path_1271181" data-name="Path 1271181" d="M106.626,276.805v8.172h-2.039V280.6a7.668,7.668,0,0,0-.045-1.141.424.424,0,0,0-.25-.29,2.58,2.58,0,0,0-.911-.1h-.2v-.952a3.707,3.707,0,0,0,2.246-1.309h1.2Z" transform="translate(-103.178 -276.805)" fill="#1d353d"/>
    </g>
    <g id="Group_1205046" data-name="Group 1205046" transform="translate(33.508 220.764)">
      <path id="Path_1271182" data-name="Path 1271182" d="M126.864,283.584v1.393h-4.487v-1.166q1.993-3.261,2.37-4.035a3.057,3.057,0,0,0,.376-1.209.884.884,0,0,0-.113-.5.393.393,0,0,0-.346-.164.38.38,0,0,0-.346.182,1.527,1.527,0,0,0-.113.722v.777h-1.827v-.3a6.482,6.482,0,0,1,.071-1.082,1.9,1.9,0,0,1,.348-.78,1.753,1.753,0,0,1,.722-.58,2.619,2.619,0,0,1,1.065-.2,2.548,2.548,0,0,1,1.84.6,2.036,2.036,0,0,1,.623,1.527,3.635,3.635,0,0,1-.351,1.484,30.562,30.562,0,0,1-2.067,3.321Z" transform="translate(-122.377 -276.648)" fill="#1d353d"/>
    </g>
    <g id="Group_1205047" data-name="Group 1205047" transform="translate(51.788 220.759)">
      <path id="Path_1271183" data-name="Path 1271183" d="M144.548,280.346a1.266,1.266,0,0,1,.692.513,3.761,3.761,0,0,1,.227,1.669,4.1,4.1,0,0,1-.222,1.512,1.579,1.579,0,0,1-.767.818,3.054,3.054,0,0,1-1.4.28,3.008,3.008,0,0,1-1.522-.325,1.576,1.576,0,0,1-.727-.8,5.309,5.309,0,0,1-.174-1.638v-.646H142.7v1.327a2.166,2.166,0,0,0,.063.674.272.272,0,0,0,.28.144.3.3,0,0,0,.313-.182,3.392,3.392,0,0,0,.076-.949v-.565a1.655,1.655,0,0,0-.106-.686.524.524,0,0,0-.313-.285,3.231,3.231,0,0,0-.8-.079v-1.186a4.124,4.124,0,0,0,.9-.055.391.391,0,0,0,.247-.242,1.671,1.671,0,0,0,.076-.585v-.455a1.185,1.185,0,0,0-.088-.566.3.3,0,0,0-.275-.136.3.3,0,0,0-.29.144,1.512,1.512,0,0,0-.079.613v.671h-2.039v-.7a1.909,1.909,0,0,1,.535-1.583,2.8,2.8,0,0,1,1.7-.411,2.648,2.648,0,0,1,1.978.57,2.265,2.265,0,0,1,.52,1.584,1.984,1.984,0,0,1-.187.991A1.674,1.674,0,0,1,144.548,280.346Z" transform="translate(-140.657 -276.643)" fill="#1d353d"/>
    </g>
    <g id="Group_1205048" data-name="Group 1205048" transform="translate(13.442 238.087)">
      <path id="Path_1271184" data-name="Path 1271184" d="M106.773,293.971v5.34h.58V300.7h-.58v1.438h-2.039V300.7h-2.422v-1.394l1.761-5.34Zm-2.039,5.34v-3.478l-.9,3.478Z" transform="translate(-102.311 -293.971)" fill="#1d353d"/>
    </g>
    <g id="Group_1205049" data-name="Group 1205049" transform="translate(33.221 238.087)">
      <path id="Path_1271185" data-name="Path 1271185" d="M126.573,293.971v1.307h-2.529v1.388a1.527,1.527,0,0,1,1.221-.56,1.641,1.641,0,0,1,1.274.472,2.771,2.771,0,0,1,.432,1.815v1.166a6.976,6.976,0,0,1-.083,1.274,1.774,1.774,0,0,1-.356.752,1.7,1.7,0,0,1-.76.53,3.37,3.37,0,0,1-1.189.184,3.3,3.3,0,0,1-1.388-.275,1.661,1.661,0,0,1-.853-.82,4.236,4.236,0,0,1-.253-1.686v-.444h2.039v.51a7.815,7.815,0,0,0,.056,1.125.354.354,0,0,0,.384.333.324.324,0,0,0,.244-.1.328.328,0,0,0,.1-.207q.007-.111.018-.964v-1.62a1.4,1.4,0,0,0-.1-.626.337.337,0,0,0-.318-.166.344.344,0,0,0-.237.086.389.389,0,0,0-.124.185,2.207,2.207,0,0,0-.028.457h-2.019l.086-4.118h4.376Z" transform="translate(-122.09 -293.971)" fill="#1d353d"/>
    </g>
    <g id="Group_1205050" data-name="Group 1205050" transform="translate(51.848 237.925)">
      <path id="Path_1271186" data-name="Path 1271186" d="M145.614,296.141h-2.039q0-.57-.012-.719a.374.374,0,0,0-.121-.25.418.418,0,0,0-.3-.1.358.358,0,0,0-.257.1.382.382,0,0,0-.116.247q-.015.151-.015.611v1.3a1.061,1.061,0,0,1,.459-.492,1.548,1.548,0,0,1,.747-.164,1.672,1.672,0,0,1,.989.3,1.316,1.316,0,0,1,.545.727,4.523,4.523,0,0,1,.116,1.146v.652a9.009,9.009,0,0,1-.066,1.277,1.622,1.622,0,0,1-.351.775,1.848,1.848,0,0,1-.782.553,3.138,3.138,0,0,1-1.158.2,3.42,3.42,0,0,1-1.348-.227,1.806,1.806,0,0,1-.81-.654,1.953,1.953,0,0,1-.333-.9q-.048-.469-.048-1.822v-1.13q0-1.458.043-1.951a1.916,1.916,0,0,1,1.191-1.59,3.212,3.212,0,0,1,1.229-.219,3.128,3.128,0,0,1,1.408.277,1.666,1.666,0,0,1,.788.783A2.985,2.985,0,0,1,145.614,296.141Zm-2.039,2.549a1.282,1.282,0,0,0-.1-.6.336.336,0,0,0-.313-.162.342.342,0,0,0-.31.154,1.24,1.24,0,0,0-.1.6v1.479a1.692,1.692,0,0,0,.094.706.327.327,0,0,0,.31.166.414.414,0,0,0,.272-.128q.141-.129.141-.694v-1.529Z" transform="translate(-140.717 -293.81)" fill="#1d353d"/>
    </g>
    <g id="Group_1205051" data-name="Group 1205051" transform="translate(14.309 255.122)">
      <path id="Path_1271187" data-name="Path 1271187" d="M107.075,311.007v1.78l-1.3,6.391h-2.029l1.451-6.7h-2.016v-1.469Z" transform="translate(-103.178 -311.007)" fill="#1d353d"/>
    </g>
    <g id="Group_1205052" data-name="Group 1205052" transform="translate(33.221 254.967)">
      <path id="Path_1271188" data-name="Path 1271188" d="M126.013,314.544a1.468,1.468,0,0,1,.691.543,3.729,3.729,0,0,1,.242,1.719,4.114,4.114,0,0,1-.192,1.459,1.558,1.558,0,0,1-.747.77,3.134,3.134,0,0,1-1.489.3,3.036,3.036,0,0,1-1.439-.287,1.723,1.723,0,0,1-.76-.763,3.919,3.919,0,0,1-.23-1.581,6.4,6.4,0,0,1,.113-1.287,1.3,1.3,0,0,1,.714-.874,1.183,1.183,0,0,1-.568-.578,2.332,2.332,0,0,1-.189-1.006,2.02,2.02,0,0,1,.585-1.581,2.545,2.545,0,0,1,1.752-.527,2.476,2.476,0,0,1,1.862.56,2.278,2.278,0,0,1,.515,1.6,2,2,0,0,1-.169.953A1.751,1.751,0,0,1,126.013,314.544Zm-1.105,1.642a1.339,1.339,0,0,0-.1-.623.332.332,0,0,0-.3-.154.311.311,0,0,0-.29.149,1.436,1.436,0,0,0-.088.629v1.06a1.474,1.474,0,0,0,.1.681.343.343,0,0,0,.31.151.294.294,0,0,0,.293-.154,1.949,1.949,0,0,0,.076-.694v-1.044Zm-.041-3.4a1.316,1.316,0,0,0-.073-.547.291.291,0,0,0-.28-.134.275.275,0,0,0-.273.144,1.376,1.376,0,0,0-.071.537v.621a1.118,1.118,0,0,0,.081.509.288.288,0,0,0,.272.142.278.278,0,0,0,.273-.139,1.485,1.485,0,0,0,.071-.572v-.561Z" transform="translate(-122.091 -310.852)" fill="#1d353d"/>
    </g>
    <g id="Group_1205053" data-name="Group 1205053" transform="translate(51.847 254.966)">
      <path id="Path_1271189" data-name="Path 1271189" d="M140.717,317.009h2.039q0,.571.015.72a.385.385,0,0,0,.124.25.416.416,0,0,0,.3.1.355.355,0,0,0,.257-.1.367.367,0,0,0,.113-.247q.013-.151.012-.611v-1.3a1.034,1.034,0,0,1-.454.492,1.561,1.561,0,0,1-.752.164,1.672,1.672,0,0,1-.989-.3,1.316,1.316,0,0,1-.545-.727,4.5,4.5,0,0,1-.116-1.146v-.652a8.705,8.705,0,0,1,.068-1.277,1.658,1.658,0,0,1,.351-.775,1.83,1.83,0,0,1,.782-.553,3.159,3.159,0,0,1,1.161-.2,3.415,3.415,0,0,1,1.342.227,1.823,1.823,0,0,1,.813.654,1.917,1.917,0,0,1,.333.9q.046.469.045,1.817v1.136q0,1.458-.04,1.951a1.859,1.859,0,0,1-.351.931,1.892,1.892,0,0,1-.84.659,3.192,3.192,0,0,1-1.226.219,3.125,3.125,0,0,1-1.411-.277,1.676,1.676,0,0,1-.788-.783A2.984,2.984,0,0,1,140.717,317.009Zm2.039-2.549q0,.515.134.636a.41.41,0,0,0,.275.121.342.342,0,0,0,.31-.154,1.244,1.244,0,0,0,.1-.6v-1.479a1.706,1.706,0,0,0-.093-.707.328.328,0,0,0-.311-.167.413.413,0,0,0-.272.129q-.141.128-.141.694v1.529Z" transform="translate(-140.717 -310.851)" fill="#1d353d"/>
    </g>
    <g id="Group_1205054" data-name="Group 1205054" transform="translate(14.059 272.033)">
      <path id="Path_1271190" data-name="Path 1271190" d="M107.738,330.839v2.726a6.439,6.439,0,0,1-.1,1.352,1.873,1.873,0,0,1-.419.792,1.8,1.8,0,0,1-.767.53,2.957,2.957,0,0,1-1,.162,3.736,3.736,0,0,1-1.217-.169,1.665,1.665,0,0,1-.772-.527,2.258,2.258,0,0,1-.409-.754,4.705,4.705,0,0,1-.121-1.259v-2.852a5.476,5.476,0,0,1,.194-1.685,1.663,1.663,0,0,1,.772-.9,2.73,2.73,0,0,1,1.4-.338,2.945,2.945,0,0,1,1.2.234,2,2,0,0,1,.792.572,1.889,1.889,0,0,1,.356.762A6.977,6.977,0,0,1,107.738,330.839Zm-2.039-.687a3.067,3.067,0,0,0-.063-.815.28.28,0,0,0-.3-.164.291.291,0,0,0-.3.174,2.663,2.663,0,0,0-.073.805v3.987a2.958,2.958,0,0,0,.068.858.291.291,0,0,0,.3.146.288.288,0,0,0,.3-.172,2.556,2.556,0,0,0,.071-.772v-4.048Z" transform="translate(-102.928 -327.917)" fill="#1d353d"/>
    </g>
    <g id="Group_1205055" data-name="Group 1205055" transform="translate(32.865 273.849)">
      <path id="Path_1271191" data-name="Path 1271191" d="M121.734,331.551h1.812v-1.817h1.232v1.817H126.6v1.232h-1.822v1.807h-1.232v-1.807h-1.812Z" transform="translate(-121.734 -329.734)" fill="#1d353d"/>
    </g>
    <line id="Line_2158" data-name="Line 2158" x2="8.714" transform="translate(30.782 292.205)" fill="none" stroke="#1d353d" stroke-linecap="round" stroke-linejoin="round" stroke-miterlimit="10" stroke-width="1.605"/>
    <line id="Line_2159" data-name="Line 2159" x2="5.83" transform="translate(51.114 276.302)" fill="none" stroke="#1d353d" stroke-linecap="round" stroke-linejoin="round" stroke-miterlimit="10" stroke-width="1.605"/>
    <line id="Line_2160" data-name="Line 2160" x2="5.83" transform="translate(70.52 259.199)" fill="none" stroke="#1d353d" stroke-linecap="round" stroke-linejoin="round" stroke-miterlimit="10" stroke-width="1.605"/>
    <line id="Line_2161" data-name="Line 2161" x2="8.714" transform="translate(30.782 295.456)" fill="none" stroke="#1d353d" stroke-linecap="round" stroke-linejoin="round" stroke-miterlimit="10" stroke-width="1.605"/>
    <line id="Line_2162" data-name="Line 2162" x2="6.01" y2="5.099" transform="translate(70.43 230.994)" fill="none" stroke="#1d353d" stroke-linecap="round" stroke-linejoin="round" stroke-miterlimit="10" stroke-width="1.605"/>
    <line id="Line_2163" data-name="Line 2163" y1="5.099" x2="6.01" transform="translate(70.43 230.994)" fill="none" stroke="#1d353d" stroke-linecap="round" stroke-linejoin="round" stroke-miterlimit="10" stroke-width="1.605"/>
    <circle id="Ellipse_12678" data-name="Ellipse 12678" cx="0.748" cy="0.748" r="0.748" transform="translate(72.687 255.606)" fill="#1d353d"/>
    <circle id="Ellipse_12679" data-name="Ellipse 12679" cx="0.748" cy="0.748" r="0.748" transform="translate(72.687 261.296)" fill="#1d353d"/>
    <path id="Path_1271192" data-name="Path 1271192" d="M159.3,330.887l.082,5.358,2.663-7.338h5.194" transform="translate(-88.869 -55.884)" fill="none" stroke="#1d353d" stroke-linecap="round" stroke-linejoin="round" stroke-miterlimit="10" stroke-width="1.605"/>
    <g id="Group_1205056" data-name="Group 1205056" transform="translate(179.396)">
      <circle id="Ellipse_12680" data-name="Ellipse 12680" cx="44.074" cy="44.074" r="44.074" fill="#2e464c"/>
      <circle id="Ellipse_12681" data-name="Ellipse 12681" cx="39.589" cy="39.589" r="39.589" transform="translate(0.233 78.873) rotate(-83.443)" fill="#ededed"/>
      <path id="Path_1271193" data-name="Path 1271193" d="M286.054,129.557a39.525,39.525,0,0,0,15.483,8.486l37.736-67.082a39.54,39.54,0,0,0-15.283-8.842Z" transform="translate(-268.265 -55.884)" fill="#2658bc" opacity="0.12"/>
      <line id="Line_2164" data-name="Line 2164" x2="0.028" y2="3.191" transform="translate(43.744 6.077)" fill="none" stroke="#38484c" stroke-linecap="round" stroke-miterlimit="10" stroke-width="1.605"/>
      <line id="Line_2165" data-name="Line 2165" x2="0.028" y2="3.191" transform="translate(43.744 6.077)" fill="none" stroke="#38484c" stroke-linecap="round" stroke-miterlimit="10" stroke-width="1.605"/>
      <line id="Line_2166" data-name="Line 2166" x2="1.324" y2="2.903" transform="translate(28.318 9.496)" fill="none" stroke="#38484c" stroke-linecap="round" stroke-miterlimit="10" stroke-width="1.605"/>
      <line id="Line_2167" data-name="Line 2167" x2="2.39" y2="2.114" transform="translate(15.616 18.895)" fill="none" stroke="#38484c" stroke-linecap="round" stroke-miterlimit="10" stroke-width="1.605"/>
      <line id="Line_2168" data-name="Line 2168" x2="3.044" y2="0.96" transform="translate(7.835 32.646)" fill="none" stroke="#38484c" stroke-linecap="round" stroke-miterlimit="10" stroke-width="1.605"/>
      <line id="Line_2169" data-name="Line 2169" y1="0.361" x2="3.17" transform="translate(6.32 48.014)" fill="none" stroke="#38484c" stroke-linecap="round" stroke-miterlimit="10" stroke-width="1.605"/>
      <line id="Line_2170" data-name="Line 2170" y1="1.619" x2="2.749" transform="translate(11.333 61.74)" fill="none" stroke="#38484c" stroke-linecap="round" stroke-miterlimit="10" stroke-width="1.605"/>
      <line id="Line_2171" data-name="Line 2171" y1="2.598" x2="1.853" transform="translate(22.008 72.411)" fill="none" stroke="#38484c" stroke-linecap="round" stroke-miterlimit="10" stroke-width="1.605"/>
      <line id="Line_2172" data-name="Line 2172" y1="3.127" x2="0.636" transform="translate(36.498 78.183)" fill="none" stroke="#38484c" stroke-linecap="round" stroke-miterlimit="10" stroke-width="1.605"/>
      <line id="Line_2173" data-name="Line 2173" x1="0.691" y1="3.115" transform="translate(51.607 78.057)" fill="none" stroke="#38484c" stroke-linecap="round" stroke-miterlimit="10" stroke-width="1.605"/>
      <line id="Line_2174" data-name="Line 2174" x1="1.898" y1="2.565" transform="translate(64.778 72.055)" fill="none" stroke="#38484c" stroke-linecap="round" stroke-miterlimit="10" stroke-width="1.605"/>
      <line id="Line_2175" data-name="Line 2175" x1="2.777" y1="1.571" transform="translate(74.369 61.215)" fill="none" stroke="#38484c" stroke-linecap="round" stroke-miterlimit="10" stroke-width="1.605"/>
      <line id="Line_2176" data-name="Line 2176" x1="3.176" y1="0.306" transform="translate(78.722 47.411)" fill="none" stroke="#38484c" stroke-linecap="round" stroke-miterlimit="10" stroke-width="1.605"/>
      <line id="Line_2177" data-name="Line 2177" x1="3.026" y2="1.012" transform="translate(77.084 32.018)" fill="none" stroke="#38484c" stroke-linecap="round" stroke-miterlimit="10" stroke-width="1.605"/>
      <line id="Line_2178" data-name="Line 2178" x1="2.353" y2="2.156" transform="translate(69.738 18.403)" fill="none" stroke="#38484c" stroke-linecap="round" stroke-miterlimit="10" stroke-width="1.605"/>
      <line id="Line_2179" data-name="Line 2179" x1="1.272" y2="2.926" transform="translate(57.955 9.227)" fill="none" stroke="#38484c" stroke-linecap="round" stroke-miterlimit="10" stroke-width="1.605"/>
      <path id="Path_1271194" data-name="Path 1271194" d="M313.8,99.946a1.462,1.462,0,1,1-1.475-1.45A1.462,1.462,0,0,1,313.8,99.946Z" transform="translate(-268.265 -55.884)" fill="none" stroke="#38484c" stroke-linecap="round" stroke-miterlimit="10" stroke-width="1.605"/>
      <line id="Line_2180" data-name="Line 2180" x1="18.395" y1="22.176" transform="translate(25.679 21.898)" fill="none" stroke="#38484c" stroke-linecap="round" stroke-miterlimit="10" stroke-width="1.605"/>
      <line id="Line_2181" data-name="Line 2181" x2="0.226" y2="26.057" transform="translate(43.845 17.643)" fill="none" stroke="#38484c" stroke-linecap="round" stroke-miterlimit="10" stroke-width="1.605"/>
    </g>
  </g>
  <g id="Group_1205058" data-name="Group 1205058" transform="translate(282.187 198.652)">
    <path id="Path_1271195" data-name="Path 1271195" d="M338.059,245.743l-1.3-5.373a2.793,2.793,0,0,1,1.769-3.491h0a2.793,2.793,0,0,1,3.171,2.294l3.986,16.445" transform="translate(-334.407 -236.817)" fill="none" stroke="#999" stroke-linecap="round" stroke-miterlimit="10" stroke-width="1.605"/>
    <path id="Path_1271196" data-name="Path 1271196" d="M350.066,295.283h0a.558.558,0,0,1-.672-.41l-.861-3.551a.558.558,0,0,1,.41-.672h0a.558.558,0,0,1,.673.41l.861,3.551A.559.559,0,0,1,350.066,295.283Z" transform="translate(-334.407 -236.817)" fill="#1d353d"/>
    <path id="Path_1271197" data-name="Path 1271197" d="M349.5,292.966h0a2.178,2.178,0,0,1-2.623-1.6L334.494,244.21a3.112,3.112,0,0,1,2.285-3.747h0a3.112,3.112,0,0,1,3.747,2.285L351.1,290.343A2.178,2.178,0,0,1,349.5,292.966Z" transform="translate(-334.407 -236.817)" fill="#ff534d"/>
    <path id="Path_1271198" data-name="Path 1271198" d="M336.393,251.437l5.754-1.394-.277-1.248-5.8,1.407Z" transform="translate(-334.407 -236.817)" fill="#999"/>
  </g>
</svg>
