<svg xmlns="http://www.w3.org/2000/svg" xmlns:xlink="http://www.w3.org/1999/xlink" width="133.565" height="119.282" viewBox="0 0 133.565 119.282">
  <defs>
    <filter id="Ellipse_12607" x="58.432" y="44.149" width="75.133" height="75.134" filterUnits="userSpaceOnUse">
      <feOffset dy="3" input="SourceAlpha"/>
      <feGaussianBlur stdDeviation="3" result="blur"/>
      <feFlood flood-opacity="0.161"/>
      <feComposite operator="in" in2="blur"/>
      <feComposite in="SourceGraphic"/>
    </filter>
    <filter id="Ellipse_12608" x="0" y="0" width="59.552" height="59.552" filterUnits="userSpaceOnUse">
      <feOffset dy="3" input="SourceAlpha"/>
      <feGaussianBlur stdDeviation="3" result="blur-2"/>
      <feFlood flood-opacity="0.161"/>
      <feComposite operator="in" in2="blur-2"/>
      <feComposite in="SourceGraphic"/>
    </filter>
    <clipPath id="clip-path">
      <rect id="Rectangle_411702" data-name="Rectangle 411702" width="96" height="91" transform="translate(753.051 1178)" fill="#fff" stroke="#707070" stroke-width="1"/>
    </clipPath>
  </defs>
  <g id="Group_1205152" data-name="Group 1205152" transform="translate(-733.218 -1166.053)">
    <g id="Group_1203357" data-name="Group 1203357" transform="translate(742.218 1172.053)">
      <g transform="matrix(1, 0, 0, 1, -9, -6)" filter="url(#Ellipse_12607)">
        <circle id="Ellipse_12607-2" data-name="Ellipse 12607" cx="28.567" cy="28.567" r="28.567" transform="translate(67.43 50.15)" fill="#ff9800"/>
      </g>
      <g transform="matrix(1, 0, 0, 1, -9, -6)" filter="url(#Ellipse_12608)">
        <circle id="Ellipse_12608-2" data-name="Ellipse 12608" cx="20.776" cy="20.776" r="20.776" transform="translate(9 6)" fill="#ff9800"/>
      </g>
    </g>
    <g id="Mask_Group_1099354" data-name="Mask Group 1099354" clip-path="url(#clip-path)">
      <g id="management_10789313" transform="translate(754.083 1176.532)">
        <g id="Group_1205151" data-name="Group 1205151">
          <g id="Group_1205146" data-name="Group 1205146">
            <path id="Path_1271252" data-name="Path 1271252" d="M81.258,12.285a10.385,10.385,0,0,1,3.04,1.26l1.976-.878L88.6,15l-.877,1.975a10.384,10.384,0,0,1,1.261,3.041L91,20.789v3.293l-2.016.776a10.386,10.386,0,0,1-1.261,3.04l.878,1.976L86.274,32.2,84.3,31.326a10.379,10.379,0,0,1-3.041,1.261L80.482,34.6H77.189l-.776-2.016a10.384,10.384,0,0,1-3.041-1.26L71.4,32.2l-2.329-2.329.877-1.975a10.384,10.384,0,0,1-1.261-3.041l-2.016-.776V20.789l2.016-.776a10.383,10.383,0,0,1,1.261-3.041L69.068,15,71.4,12.668l1.976.878a10.379,10.379,0,0,1,3.041-1.26l.776-2.016h3.293Z" fill="#ffe177" fill-rule="evenodd"/>
            <path id="Path_1271253" data-name="Path 1271253" d="M73.372,31.326,71.4,32.2l-.3-.3,1.852-.823Q73.156,31.206,73.372,31.326Zm7.886-19.04a10.385,10.385,0,0,1,3.04,1.26l-.562.25a13.691,13.691,0,0,0-3.468-1.51l-.776-2.016h.989ZM84.3,31.326a10.379,10.379,0,0,1-3.041,1.261L80.482,34.6h-.989l.776-2.016a13.687,13.687,0,0,0,3.469-1.51ZM71.092,12.972l.3-.3,1.976.878q-.217.119-.427.25Zm14.5,0,.685-.3L88.6,15l-.877,1.975a10.384,10.384,0,0,1,1.261,3.041L91,20.789v3.293l-2.016.776a10.385,10.385,0,0,1-1.261,3.04l.878,1.976L86.274,32.2l-.685-.3,2.024-2.024L86.736,27.9A10.38,10.38,0,0,0,88,24.858l2.016-.776V20.789L88,20.013a10.384,10.384,0,0,0-1.261-3.041L87.614,15Z" fill="#ffd064" fill-rule="evenodd"/>
            <circle id="Ellipse_12763" data-name="Ellipse 12763" cx="5.743" cy="5.743" r="5.743" transform="translate(73.092 16.693)" fill="#eceff1"/>
            <path id="Path_1271254" data-name="Path 1271254" d="M78.835,16.693a5.743,5.743,0,0,0,0,11.486q.231,0,.457-.018a5.743,5.743,0,0,1,0-11.449q-.226-.018-.457-.018Z" fill="#d1d1d6" fill-rule="evenodd"/>
          </g>
          <g id="Group_1205147" data-name="Group 1205147">
            <path id="Path_1271255" data-name="Path 1271255" d="M49.392,4.946a10.386,10.386,0,0,1,3.041,1.26l1.976-.878,2.329,2.329L55.86,9.633a10.384,10.384,0,0,1,1.261,3.041l2.016.776v3.293l-2.016.776A10.389,10.389,0,0,1,55.86,20.56l.878,1.976-2.329,2.329-1.975-.877a10.384,10.384,0,0,1-3.041,1.261l-.776,2.016H45.323l-.776-2.016a10.385,10.385,0,0,1-3.04-1.26l-1.976.878L37.2,22.536l.877-1.975a10.384,10.384,0,0,1-1.261-3.041L34.8,16.743V13.45l2.016-.776A10.383,10.383,0,0,1,38.08,9.634L37.2,7.658l2.329-2.329,1.976.878a10.38,10.38,0,0,1,3.04-1.26l.776-2.016h3.293Z" fill="#ffe177" fill-rule="evenodd"/>
            <path id="Path_1271256" data-name="Path 1271256" d="M41.507,23.987l-1.976.878-.3-.3,1.852-.823Q41.29,23.867,41.507,23.987Zm7.886-19.04a10.386,10.386,0,0,1,3.041,1.26l-.562.249A13.7,13.7,0,0,0,48.4,4.946L47.627,2.93h.989Zm3.041,19.041a10.384,10.384,0,0,1-3.041,1.261l-.776,2.016h-.989l.776-2.016a13.684,13.684,0,0,0,3.469-1.51ZM39.227,5.634l.3-.3,1.976.878q-.217.119-.427.249Zm14.5,0,.685-.3,2.329,2.329L55.86,9.633a10.384,10.384,0,0,1,1.261,3.041l2.016.776v3.293l-2.016.776a10.389,10.389,0,0,1-1.261,3.041l.878,1.976-2.329,2.329-.685-.3,2.024-2.024L54.87,20.56a10.379,10.379,0,0,0,1.26-3.041l2.016-.776V13.45l-2.016-.776A10.384,10.384,0,0,0,54.87,9.633l.877-1.975Z" fill="#ffd064" fill-rule="evenodd"/>
            <circle id="Ellipse_12764" data-name="Ellipse 12764" cx="5.742" cy="5.742" r="5.742" transform="translate(38.843 15.1) rotate(-45)" fill="#eceff1"/>
            <path id="Path_1271257" data-name="Path 1271257" d="M46.97,9.354a5.743,5.743,0,0,0,0,11.486q.231,0,.457-.018a5.743,5.743,0,0,1,0-11.449q-.226-.018-.457-.018Z" fill="#d1d1d6" fill-rule="evenodd"/>
          </g>
          <g id="Group_1205148" data-name="Group 1205148">
            <path id="Path_1271258" data-name="Path 1271258" d="M17.526,12.285a10.388,10.388,0,0,1,3.041,1.26l1.976-.878L24.871,15l-.877,1.975a10.384,10.384,0,0,1,1.261,3.041l2.016.776v3.293l-2.016.776a10.386,10.386,0,0,1-1.261,3.04l.878,1.976L22.543,32.2l-1.975-.877a10.379,10.379,0,0,1-3.041,1.261L16.751,34.6H13.458l-.776-2.016a10.388,10.388,0,0,1-3.041-1.26L7.665,32.2,5.337,29.875,6.214,27.9a10.384,10.384,0,0,1-1.261-3.041l-2.016-.776V20.789l2.016-.776a10.388,10.388,0,0,1,1.261-3.041L5.337,15l2.329-2.329,1.976.878a10.379,10.379,0,0,1,3.041-1.26l.776-2.016h3.293Z" fill="#ffe177" fill-rule="evenodd"/>
            <path id="Path_1271259" data-name="Path 1271259" d="M9.641,31.326,7.665,32.2l-.3-.3,1.852-.823Q9.424,31.206,9.641,31.326Zm7.886-19.04a10.388,10.388,0,0,1,3.041,1.26l-.562.25a13.691,13.691,0,0,0-3.468-1.51l-.776-2.016h.989Zm3.041,19.041a10.379,10.379,0,0,1-3.041,1.261L16.751,34.6h-.989l.776-2.016a13.684,13.684,0,0,0,3.469-1.51ZM7.361,12.972l.3-.3,1.976.878q-.217.119-.427.25Zm14.5,0,.685-.3L24.871,15l-.877,1.975a10.384,10.384,0,0,1,1.261,3.041l2.016.776v3.293l-2.016.776a10.385,10.385,0,0,1-1.261,3.04l.878,1.976L22.543,32.2l-.685-.3,2.024-2.024L23,27.9a10.38,10.38,0,0,0,1.26-3.04l2.016-.776V20.789l-2.016-.776A10.384,10.384,0,0,0,23,16.972L23.882,15Z" fill="#ffd064" fill-rule="evenodd"/>
            <circle id="Ellipse_12765" data-name="Ellipse 12765" cx="5.742" cy="5.742" r="5.742" transform="translate(6.979 22.435) rotate(-45)" fill="#eceff1"/>
            <path id="Path_1271260" data-name="Path 1271260" d="M15.1,16.693a5.743,5.743,0,0,0,0,11.486q.231,0,.457-.018a5.743,5.743,0,0,1,0-11.449q-.226-.018-.457-.018Z" fill="#d1d1d6" fill-rule="evenodd"/>
          </g>
          <g id="Group_1205149" data-name="Group 1205149">
            <path id="Path_1271261" data-name="Path 1271261" d="M22.983,90.994H79.2V75.181a1.421,1.421,0,0,0-.43-1.039l-8.248-8.248a1.419,1.419,0,0,0-1.039-.43H24.452a1.472,1.472,0,0,0-1.469,1.469Z" fill="#eceff1" fill-rule="evenodd"/>
            <path id="Path_1271262" data-name="Path 1271262" d="M22.983,90.994h3.6V65.464H24.452a1.472,1.472,0,0,0-1.469,1.469Z" fill="#d1d1d6" fill-rule="evenodd"/>
            <path id="Path_1271263" data-name="Path 1271263" d="M70.1,65.592a1.472,1.472,0,0,1,.43.3l8.248,8.248a1.476,1.476,0,0,1,.3.43H70.83a.736.736,0,0,1-.734-.735Z" fill="#a79ba7" fill-rule="evenodd"/>
          </g>
          <g id="Group_1205150" data-name="Group 1205150">
            <path id="Path_1271264" data-name="Path 1271264" d="M50.568,50.418a15.429,15.429,0,0,1,4.516,1.872l2.935-1.3,3.459,3.459-1.3,2.934A15.424,15.424,0,0,1,62.048,61.9l2.994,1.152v4.892l-2.995,1.153a15.427,15.427,0,0,1-1.872,4.516l1.3,2.935L58.02,80l-2.934-1.3a15.424,15.424,0,0,1-4.518,1.873l-1.153,2.994H44.524l-1.153-2.995A15.429,15.429,0,0,1,38.855,78.7L35.92,80l-3.459-3.459,1.3-2.934a15.425,15.425,0,0,1-1.873-4.518L28.9,67.941V63.049L31.892,61.9a15.425,15.425,0,0,1,1.872-4.517l-1.3-2.935,3.459-3.459,2.935,1.3a15.427,15.427,0,0,1,4.516-1.872l1.153-2.995h4.891Z" fill="#ffe177" fill-rule="evenodd"/>
            <path id="Path_1271265" data-name="Path 1271265" d="M38.855,78.7,35.92,80l-.452-.452L38.22,78.33q.313.193.635.371ZM50.568,50.418a15.429,15.429,0,0,1,4.516,1.872l-.834.37A20.347,20.347,0,0,0,49.1,50.418l-1.153-2.995h1.469ZM55.086,78.7a15.425,15.425,0,0,1-4.518,1.873l-1.153,2.994H47.946L49.1,80.574a20.335,20.335,0,0,0,5.153-2.243ZM35.468,51.439l.452-.452,2.935,1.3q-.322.177-.635.37Zm21.534,0,1.018-.452,3.459,3.459-1.3,2.934A15.424,15.424,0,0,1,62.048,61.9l2.994,1.152v4.892l-2.995,1.153a15.427,15.427,0,0,1-1.872,4.516l1.3,2.935L58.02,80,57,79.552l3.007-3.007-1.3-2.935a15.427,15.427,0,0,0,1.872-4.516l2.995-1.153V63.05L60.579,61.9a15.423,15.423,0,0,0-1.873-4.518l1.3-2.934Z" fill="#ffd064" fill-rule="evenodd"/>
            <circle id="Ellipse_12766" data-name="Ellipse 12766" cx="8.712" cy="8.712" r="8.712" transform="translate(34.693 64.261) rotate(-39.358)" fill="#ffc338"/>
            <path id="Path_1271266" data-name="Path 1271266" d="M46.97,56.781a8.715,8.715,0,1,0,0,17.429q.35,0,.693-.027a8.715,8.715,0,0,1,0-17.375Q47.32,56.781,46.97,56.781Z" fill="#f5b829" fill-rule="evenodd"/>
          </g>
        </g>
        <path id="Path_1271267" data-name="Path 1271267" d="M24.45,66.938h2.977v1.009a1.464,1.464,0,0,0,.941,1.368l2.293.883a16.859,16.859,0,0,0,1.454,3.51l-1,2.247a1.467,1.467,0,0,0,.3,1.633l3.459,3.458a1.468,1.468,0,0,0,1.633.3l2.248-1a16.875,16.875,0,0,0,3.507,1.453l.883,2.3a1.469,1.469,0,0,0,1.37.94h4.892a1.469,1.469,0,0,0,1.37-.94l.883-2.293a16.885,16.885,0,0,0,3.509-1.455l2.247,1a1.469,1.469,0,0,0,1.633-.3l3.459-3.458a1.467,1.467,0,0,0,.3-1.633l-1-2.249A16.8,16.8,0,0,0,63.273,70.2l2.294-.884a1.464,1.464,0,0,0,.94-1.368V66.938h2.118v6.906a2.2,2.2,0,0,0,2.2,2.2h6.907V89.532H24.449Zm5.913-2.875v2.875l2.054.791a1.468,1.468,0,0,1,.9,1.031,13.963,13.963,0,0,0,1.694,4.088,1.466,1.466,0,0,1,.092,1.365l-.894,2.013,2.034,2.034,2.014-.9a1.471,1.471,0,0,1,1.366.092,13.991,13.991,0,0,0,4.087,1.7,1.465,1.465,0,0,1,1.03.9l.791,2.055h2.876l.791-2.053a1.468,1.468,0,0,1,1.03-.9,13.917,13.917,0,0,0,4.088-1.7,1.471,1.471,0,0,1,1.365-.092l2.013.9,2.034-2.034-.894-2.015a1.465,1.465,0,0,1,.092-1.365,13.932,13.932,0,0,0,1.694-4.086,1.469,1.469,0,0,1,.9-1.031l2.054-.791V64.064l-2.054-.791a1.469,1.469,0,0,1-.9-1.031,13.915,13.915,0,0,0-1.695-4.086,1.469,1.469,0,0,1-.092-1.367l.894-2.013-2.034-2.033-2.014.893a1.464,1.464,0,0,1-1.365-.092,13.951,13.951,0,0,0-4.087-1.694,1.468,1.468,0,0,1-1.03-.9L48.405,48.9H45.529l-.791,2.055a1.468,1.468,0,0,1-1.03.9,13.96,13.96,0,0,0-4.087,1.694,1.464,1.464,0,0,1-1.365.092l-2.014-.893-2.034,2.033.894,2.014a1.467,1.467,0,0,1-.092,1.365,13.931,13.931,0,0,0-1.695,4.086,1.468,1.468,0,0,1-.9,1.031Zm45.3,9.047-4.1-4.1v4.1ZM83.1,89.532H80.67V75.187a2.88,2.88,0,0,0-.86-2.077l-8.249-8.249A2.883,2.883,0,0,0,69.485,64H66.507v-.947a1.469,1.469,0,0,0-.94-1.371L63.274,60.8a16.844,16.844,0,0,0-1.455-3.51l1-2.246a1.469,1.469,0,0,0-.3-1.635l-3.459-3.458a1.465,1.465,0,0,0-1.633-.3l-2.248,1a16.814,16.814,0,0,0-3.507-1.455L50.783,46.9a1.468,1.468,0,0,0-1.37-.941H44.522a1.467,1.467,0,0,0-1.37.941l-.883,2.293a16.82,16.82,0,0,0-3.508,1.455l-2.248-1a1.465,1.465,0,0,0-1.634.3l-3.459,3.458a1.469,1.469,0,0,0-.3,1.635l1,2.247A16.82,16.82,0,0,0,30.662,60.8l-2.294.882a1.47,1.47,0,0,0-.94,1.371V64H24.45a2.939,2.939,0,0,0-2.937,2.935V89.532H19.086a1.468,1.468,0,1,0,0,2.935H83.1a1.468,1.468,0,1,0,0-2.935ZM30.963,41.445a1.468,1.468,0,0,1,2.775.84l-.518,3.691a1.468,1.468,0,0,1-2,1.158l-3.456-1.4a1.467,1.467,0,0,1,.66-2.823L25,37a1.468,1.468,0,1,1,2.542-1.468Zm30.482-.816a1.466,1.466,0,0,1,1.526.816l3.416-5.917A1.468,1.468,0,1,1,68.931,37l-3.416,5.917a1.467,1.467,0,0,1,.66,2.823l-3.456,1.4a1.468,1.468,0,0,1-2-1.158L60.2,42.285a1.467,1.467,0,0,1,1.249-1.656Zm-13.01-8.772V38.69A1.467,1.467,0,0,1,50.419,40.8l-2.295,2.939a1.469,1.469,0,0,1-2.313,0L43.516,40.8A1.467,1.467,0,0,1,45.5,38.69V31.857a1.468,1.468,0,0,1,2.936,0Zm30.4-5.141a4.276,4.276,0,1,1,4.275-4.274A4.28,4.28,0,0,1,78.833,26.716Zm0-11.487a7.211,7.211,0,1,0,7.211,7.212A7.219,7.219,0,0,0,78.833,15.23Zm10.7,7.85V21.8l-1.075-.413a1.47,1.47,0,0,1-.9-1.031,8.889,8.889,0,0,0-1.083-2.611,1.467,1.467,0,0,1-.092-1.365l.468-1.055-.9-.9-1.055.468a1.464,1.464,0,0,1-1.366-.092,8.948,8.948,0,0,0-2.611-1.082,1.465,1.465,0,0,1-1.03-.9l-.414-1.075H78.194l-.414,1.075a1.464,1.464,0,0,1-1.03.9A8.95,8.95,0,0,0,74.14,14.8a1.465,1.465,0,0,1-1.366.092l-1.055-.468-.9.9.469,1.055a1.467,1.467,0,0,1-.092,1.365,8.907,8.907,0,0,0-1.082,2.611,1.469,1.469,0,0,1-.9,1.031l-1.075.413V23.08l1.075.413a1.469,1.469,0,0,1,.9,1.031,8.9,8.9,0,0,0,1.082,2.611,1.467,1.467,0,0,1,.092,1.365l-.468,1.055.9.9,1.055-.468a1.47,1.47,0,0,1,1.365.092,8.924,8.924,0,0,0,2.611,1.082,1.467,1.467,0,0,1,1.03.9l.414,1.075h1.278l.414-1.075a1.468,1.468,0,0,1,1.03-.9,8.916,8.916,0,0,0,2.612-1.082,1.47,1.47,0,0,1,1.365-.092l1.054.468.9-.9L86.382,28.5a1.467,1.467,0,0,1,.091-1.365,8.912,8.912,0,0,0,1.082-2.611,1.469,1.469,0,0,1,.9-1.031Zm2-3.655-1.324-.51a11.783,11.783,0,0,0-.837-2.02l.576-1.3a1.47,1.47,0,0,0-.3-1.635L87.31,11.636a1.469,1.469,0,0,0-1.634-.3l-1.3.576a11.709,11.709,0,0,0-2.019-.837l-.51-1.325a1.468,1.468,0,0,0-1.37-.941H77.187a1.468,1.468,0,0,0-1.37.941l-.51,1.325a11.7,11.7,0,0,0-2.019.837l-1.3-.576a1.466,1.466,0,0,0-1.634.3l-2.329,2.328a1.47,1.47,0,0,0-.3,1.635l.576,1.3a11.806,11.806,0,0,0-.837,2.02l-1.324.51a1.464,1.464,0,0,0-.94,1.368v3.293a1.469,1.469,0,0,0,.94,1.371l1.324.508a11.722,11.722,0,0,0,.838,2.02l-.576,1.3a1.47,1.47,0,0,0,.3,1.635l2.329,2.328a1.466,1.466,0,0,0,1.634.3l1.3-.576a11.681,11.681,0,0,0,2.019.837l.51,1.324a1.467,1.467,0,0,0,1.37.941H80.48a1.468,1.468,0,0,0,1.37-.941l.509-1.323a11.783,11.783,0,0,0,2.02-.838l1.3.576a1.465,1.465,0,0,0,1.633-.3l2.329-2.328a1.47,1.47,0,0,0,.3-1.635l-.576-1.3a11.879,11.879,0,0,0,.837-2.02l1.324-.508a1.469,1.469,0,0,0,.941-1.371V20.794a1.464,1.464,0,0,0-.941-1.369Zm-44.559-8.6A4.276,4.276,0,1,1,42.692,15.1,4.28,4.28,0,0,1,46.968,10.826Zm0,11.487A7.211,7.211,0,1,0,39.757,15.1a7.22,7.22,0,0,0,7.211,7.212Zm-10.7-7.85v1.279l1.075.413a1.469,1.469,0,0,1,.9,1.031A8.891,8.891,0,0,0,39.327,19.8a1.469,1.469,0,0,1,.092,1.365l-.468,1.055.9.9,1.055-.468a1.459,1.459,0,0,1,1.366.092,8.978,8.978,0,0,0,2.611,1.083,1.466,1.466,0,0,1,1.03.9l.414,1.077h1.277l.414-1.075a1.467,1.467,0,0,1,1.03-.9,8.9,8.9,0,0,0,2.611-1.083,1.459,1.459,0,0,1,1.365-.092l1.054.468.9-.9-.468-1.055a1.465,1.465,0,0,1,.092-1.365,8.926,8.926,0,0,0,1.082-2.611,1.469,1.469,0,0,1,.9-1.031l1.075-.413V14.463l-1.075-.413a1.47,1.47,0,0,1-.9-1.031,8.871,8.871,0,0,0-1.082-2.611,1.467,1.467,0,0,1-.092-1.365l.468-1.055-.9-.9-1.055.468a1.463,1.463,0,0,1-1.365-.092A8.911,8.911,0,0,0,49.05,6.379a1.464,1.464,0,0,1-1.03-.9L47.606,4.4H46.329l-.414,1.075a1.465,1.465,0,0,1-1.03.9,8.913,8.913,0,0,0-2.611,1.083,1.47,1.47,0,0,1-1.366.092l-1.055-.468-.9.9.468,1.055a1.466,1.466,0,0,1-.092,1.365,8.91,8.91,0,0,0-1.082,2.611,1.469,1.469,0,0,1-.9,1.031Zm-1.995,3.655,1.324.51a11.735,11.735,0,0,0,.837,2.02l-.576,1.3a1.469,1.469,0,0,0,.3,1.635l2.329,2.328a1.466,1.466,0,0,0,1.634.3l1.3-.576a11.676,11.676,0,0,0,2.019.837l.51,1.324a1.468,1.468,0,0,0,1.37.941h3.293a1.468,1.468,0,0,0,1.37-.941l.509-1.323a11.828,11.828,0,0,0,2.02-.838l1.3.576a1.466,1.466,0,0,0,1.633-.3l2.329-2.328a1.469,1.469,0,0,0,.3-1.635l-.576-1.3a11.893,11.893,0,0,0,.837-2.02l1.324-.51a1.465,1.465,0,0,0,.94-1.369V13.455a1.469,1.469,0,0,0-.94-1.37l-1.324-.508a11.766,11.766,0,0,0-.837-2.02l.576-1.3a1.469,1.469,0,0,0-.3-1.635L55.444,4.3a1.464,1.464,0,0,0-1.633-.3l-1.3.576a11.685,11.685,0,0,0-2.019-.836l-.51-1.325a1.468,1.468,0,0,0-1.369-.942H45.321a1.469,1.469,0,0,0-1.37.942l-.51,1.325a11.691,11.691,0,0,0-2.019.836l-1.3-.576a1.464,1.464,0,0,0-1.634.3L36.162,6.625a1.469,1.469,0,0,0-.3,1.635l.576,1.3a11.766,11.766,0,0,0-.837,2.02l-1.324.508a1.468,1.468,0,0,0-.94,1.37v3.293a1.465,1.465,0,0,0,.941,1.369ZM15.1,26.716a4.276,4.276,0,1,1,4.275-4.274A4.28,4.28,0,0,1,15.1,26.716Zm7.211-4.274a7.211,7.211,0,1,0-7.211,7.21A7.219,7.219,0,0,0,22.313,22.442Zm-6.158,9.623a1.468,1.468,0,0,1,1.03-.9A8.909,8.909,0,0,0,19.8,30.081a1.471,1.471,0,0,1,1.366-.092l1.054.468.9-.9L22.65,28.5a1.468,1.468,0,0,1,.092-1.365,8.927,8.927,0,0,0,1.082-2.611,1.469,1.469,0,0,1,.9-1.031L25.8,23.08V21.8l-1.075-.413a1.469,1.469,0,0,1-.9-1.031,8.888,8.888,0,0,0-1.082-2.611,1.467,1.467,0,0,1-.092-1.365l.468-1.055-.9-.9-1.055.468A1.464,1.464,0,0,1,19.8,14.8a8.944,8.944,0,0,0-2.611-1.082,1.465,1.465,0,0,1-1.03-.9l-.414-1.075H14.463l-.414,1.075a1.465,1.465,0,0,1-1.03.9A8.95,8.95,0,0,0,10.408,14.8a1.465,1.465,0,0,1-1.366.092l-1.055-.468-.9.9.468,1.055a1.467,1.467,0,0,1-.092,1.365,8.907,8.907,0,0,0-1.082,2.611,1.469,1.469,0,0,1-.9,1.031L4.4,21.8V23.08l1.075.413a1.469,1.469,0,0,1,.9,1.031,8.9,8.9,0,0,0,1.082,2.611A1.467,1.467,0,0,1,7.553,28.5l-.468,1.055.9.9,1.055-.468a1.47,1.47,0,0,1,1.365.092,8.922,8.922,0,0,0,2.611,1.082,1.468,1.468,0,0,1,1.03.9l.414,1.075h1.278Zm1.964,3.069.509-1.323a11.813,11.813,0,0,0,2.02-.838l1.3.576a1.465,1.465,0,0,0,1.634-.3l2.329-2.328a1.469,1.469,0,0,0,.3-1.635l-.576-1.3a11.864,11.864,0,0,0,.837-2.02l1.324-.508a1.469,1.469,0,0,0,.94-1.371V20.794a1.465,1.465,0,0,0-.94-1.368l-1.324-.51a11.739,11.739,0,0,0-.837-2.02l.576-1.3a1.469,1.469,0,0,0-.3-1.635l-2.329-2.328a1.469,1.469,0,0,0-1.634-.3l-1.3.576a11.7,11.7,0,0,0-2.019-.837l-.51-1.325a1.468,1.468,0,0,0-1.37-.941H13.455a1.468,1.468,0,0,0-1.37.941l-.51,1.325a11.7,11.7,0,0,0-2.019.837l-1.3-.576a1.465,1.465,0,0,0-1.634.3L4.3,13.964a1.469,1.469,0,0,0-.3,1.635l.576,1.3a11.806,11.806,0,0,0-.837,2.02l-1.324.51a1.464,1.464,0,0,0-.941,1.368v3.293a1.469,1.469,0,0,0,.94,1.371l1.324.508a11.693,11.693,0,0,0,.838,2.02l-.576,1.3a1.469,1.469,0,0,0,.3,1.635l2.329,2.328a1.465,1.465,0,0,0,1.633.3l1.3-.576a11.691,11.691,0,0,0,2.019.837l.51,1.324a1.467,1.467,0,0,0,1.37.941h3.293a1.468,1.468,0,0,0,1.37-.941ZM48.249,67.92a1.84,1.84,0,0,1-1.2.4c-.569.018-1.293-.194-1.45-.826a1.468,1.468,0,1,0-2.848.71A3.976,3.976,0,0,0,45.5,71.031a1.468,1.468,0,0,0,2.935.026,4.142,4.142,0,0,0,2.035-1.216,3.114,3.114,0,0,0,.736-2.477c-.152-1.251-.968-2.847-3.992-3.343-.472-.077-1.266-.264-1.285-.64-.022-.455.533-.616.7-.655a1.315,1.315,0,0,1,1.549.7,1.468,1.468,0,1,0,2.707-1.136,4.1,4.1,0,0,0-2.451-2.3,1.468,1.468,0,0,0-2.936.006V60A3.521,3.521,0,0,0,43,63.522c.051,1.048.6,2.88,3.741,3.4,1.485.244,1.535.648,1.553.8.016.136-.012.169-.041.2Zm-1.282-9.482A7.063,7.063,0,1,0,54.031,65.5,7.071,7.071,0,0,0,46.968,58.438Zm0,17.061a10,10,0,1,0-10-10A10.009,10.009,0,0,0,46.968,75.5Z" fill-rule="evenodd"/>
      </g>
    </g>
  </g>
</svg>
