<svg xmlns="http://www.w3.org/2000/svg" xmlns:xlink="http://www.w3.org/1999/xlink" width="133.566" height="119.282" viewBox="0 0 133.566 119.282">
  <defs>
    <filter id="Ellipse_12607" x="58.432" y="44.149" width="75.134" height="75.134" filterUnits="userSpaceOnUse">
      <feOffset dy="3" input="SourceAlpha"/>
      <feGaussianBlur stdDeviation="3" result="blur"/>
      <feFlood flood-opacity="0.161"/>
      <feComposite operator="in" in2="blur"/>
      <feComposite in="SourceGraphic"/>
    </filter>
    <filter id="Ellipse_12608" x="0" y="0" width="59.552" height="59.552" filterUnits="userSpaceOnUse">
      <feOffset dy="3" input="SourceAlpha"/>
      <feGaussianBlur stdDeviation="3" result="blur-2"/>
      <feFlood flood-opacity="0.161"/>
      <feComposite operator="in" in2="blur-2"/>
      <feComposite in="SourceGraphic"/>
    </filter>
    <clipPath id="clip-path">
      <rect id="Rectangle_411676" data-name="Rectangle 411676" width="102" height="92" transform="translate(1169.051 1155)" fill="#fff" stroke="#707070" stroke-width="1"/>
    </clipPath>
  </defs>
  <g id="Group_1205125" data-name="Group 1205125" transform="translate(-1158.001 -1141.837)">
    <g id="Group_1203357" data-name="Group 1203357" transform="translate(1167.001 1147.837)">
      <g transform="matrix(1, 0, 0, 1, -9, -6)" filter="url(#Ellipse_12607)">
        <circle id="Ellipse_12607-2" data-name="Ellipse 12607" cx="28.567" cy="28.567" r="28.567" transform="translate(67.43 50.15)" fill="#ff9800"/>
      </g>
      <g transform="matrix(1, 0, 0, 1, -9, -6)" filter="url(#Ellipse_12608)">
        <circle id="Ellipse_12608-2" data-name="Ellipse 12608" cx="20.776" cy="20.776" r="20.776" transform="translate(9 6)" fill="#ff9800"/>
      </g>
    </g>
    <g id="Mask_Group_1099342" data-name="Mask Group 1099342" clip-path="url(#clip-path)">
      <g id="pie-chart_2695417" transform="translate(1174.046 1154.996)">
        <g id="Group_1205060" data-name="Group 1205060">
          <path id="Path_1271206" data-name="Path 1271206" d="M86.274,18.033A33.016,33.016,0,0,0,68.851,3.356C60,.139,31.927,26.593,41.023,42.48c1.85,3.231-8.121,14.527-5.478,16.864A33.154,33.154,0,0,0,86.274,18.033Z" fill="#b59eee"/>
          <path id="Path_1271207" data-name="Path 1271207" d="M57.506,34.5,38.323,61.546A33.162,33.162,0,0,1,41.037,5.737Z" fill="#f6e266"/>
          <path id="Path_1271208" data-name="Path 1271208" d="M68.849,3.356,57.507,34.5,41.037,5.737A33.081,33.081,0,0,1,68.849,3.356Z" fill="#95ecda"/>
          <g id="Group_1205059" data-name="Group 1205059">
            <path id="Path_1271209" data-name="Path 1271209" d="M18.461,90.38a71.6,71.6,0,0,1-12.69,0,4.545,4.545,0,0,1-4.137-4.245,156.6,156.6,0,0,1,0-18.912,4.545,4.545,0,0,1,4.137-4.245,71.606,71.606,0,0,1,12.69,0A4.545,4.545,0,0,1,22.6,67.224a156.6,156.6,0,0,1,0,18.912A4.545,4.545,0,0,1,18.461,90.38Z" fill="#95ecda"/>
            <path id="Path_1271210" data-name="Path 1271210" d="M7.819,90.532q-1.025-.059-2.048-.151a4.545,4.545,0,0,1-4.137-4.246,156.678,156.678,0,0,1,0-18.912,4.545,4.545,0,0,1,4.137-4.244q1.025-.092,2.048-.151A4.88,4.88,0,0,0,5.7,66.618a177.384,177.384,0,0,0,0,20.123,4.88,4.88,0,0,0,2.116,3.79Z" fill="#67a497"/>
            <path id="Path_1271211" data-name="Path 1271211" d="M24.07,90.083a37.941,37.941,0,0,0,13.2,0,4.548,4.548,0,0,0,3.752-4.309q.832-21.647,0-43.294a4.548,4.548,0,0,0-3.752-4.309,37.941,37.941,0,0,0-13.2,0,4.548,4.548,0,0,0-3.752,4.309q-.832,21.647,0,43.294a4.549,4.549,0,0,0,3.752,4.309Z" fill="#b59eee"/>
            <path id="Path_1271212" data-name="Path 1271212" d="M27.184,90.5q-1.555-.143-3.112-.417a4.549,4.549,0,0,1-3.753-4.309q-.831-21.646,0-43.293a4.549,4.549,0,0,1,3.753-4.309q1.555-.273,3.112-.417a4.671,4.671,0,0,0-2.794,4.137q-.831,22.235,0,44.469A4.671,4.671,0,0,0,27.184,90.5Z" fill="#e1d7f8"/>
            <path id="Path_1271213" data-name="Path 1271213" d="M41.659,90.261a51.492,51.492,0,0,0,12.818,0,4.554,4.554,0,0,0,4-4.283q.721-14.8,0-29.591a4.553,4.553,0,0,0-4-4.283,51.492,51.492,0,0,0-12.818,0,4.554,4.554,0,0,0-4,4.283q-.721,14.8,0,29.591a4.553,4.553,0,0,0,4,4.283Z" fill="#ffc94a"/>
            <path id="Path_1271214" data-name="Path 1271214" d="M43.409,90.449c-.583-.051-1.168-.114-1.751-.187a4.554,4.554,0,0,1-4-4.283q-.722-14.8,0-29.591a4.555,4.555,0,0,1,4-4.283c.585-.073,1.168-.136,1.752-.189a4.919,4.919,0,0,0-1.681,3.513q-.722,15.754,0,31.51A4.915,4.915,0,0,0,43.409,90.449Z" fill="#ffe9b5"/>
          </g>
        </g>
        <g id="Group_1205061" data-name="Group 1205061">
          <path id="Path_1271215" data-name="Path 1271215" d="M90.556,76.589H73.72l-3.769-9.918A34.492,34.492,0,0,0,87.434,17.366a35.069,35.069,0,0,0-2.919-4.315A1.348,1.348,0,0,0,82.4,14.723,32.418,32.418,0,0,1,85.1,18.705,31.8,31.8,0,0,1,73.3,62.1,32.263,32.263,0,0,1,69,64.16l-1.758-4.627a1.348,1.348,0,1,0-2.519.957l1.725,4.54a31.346,31.346,0,0,1-6.31,1.167q-.08-4.951-.319-9.876a5.891,5.891,0,0,0-5.177-5.555,53.078,53.078,0,0,0-6.732-.408L58.584,35.305h0l.015-.021h0a1.347,1.347,0,0,0,.168-.317L69.642,5.106A31.612,31.612,0,0,1,78.9,10.974,1.348,1.348,0,0,0,80.71,8.98a34.5,34.5,0,0,0-54.2,10.375l-3.674-3.674a1.347,1.347,0,0,0-.953-.395H5.751a1.348,1.348,0,1,0,0,2.7H21.326l4.024,4.024a34.457,34.457,0,0,0-2.257,15.02,5.937,5.937,0,0,0-4.126,5.4c-.244,6.383-.38,12.833-.408,19.2a73.224,73.224,0,0,0-12.91,0A5.926,5.926,0,0,0,.286,67.14a158.84,158.84,0,0,0,0,19.073A5.926,5.926,0,0,0,5.65,91.719c2.145.19,4.3.285,6.463.285s4.319-.1,6.464-.285a5.852,5.852,0,0,0,3.054-1.184,5.836,5.836,0,0,0,2.2.872,39.5,39.5,0,0,0,13.668,0,5.881,5.881,0,0,0,1.708-.585,5.946,5.946,0,0,0,2.277.772,53.074,53.074,0,0,0,13.151,0,5.891,5.891,0,0,0,5.177-5.555c.277-5.686.393-11.418.351-17.143A34.422,34.422,0,0,0,67.4,67.543l4.132,10.873a1.348,1.348,0,0,0,1.26.869H90.555a1.348,1.348,0,0,0,0-2.7ZM61.178,2.92a32.191,32.191,0,0,1,5.93,1.268l-9.88,27.129L42.885,6.266A31.5,31.5,0,0,1,61.178,2.92Zm-30.1,21.007L28.536,21.38A31.78,31.78,0,0,1,40.546,7.606L55.9,34.427,44.517,50.477q-.95.064-1.9.161c-.067-2.786-.153-5.542-.256-8.21A5.927,5.927,0,0,0,37.5,36.844a39.483,39.483,0,0,0-11.737-.288A31.761,31.761,0,0,1,27.449,24.1l1.727,1.727a1.348,1.348,0,0,0,1.906-1.906ZM24.3,88.753a3.16,3.16,0,0,1-1.756-.944,3.213,3.213,0,0,1-.882-2.089c-.075-2-.14-3.97-.192-5.85a1.348,1.348,0,1,0-2.694.074c.052,1.889.117,3.866.193,5.879a5.913,5.913,0,0,0,.791,2.731,3.182,3.182,0,0,1-1.42.479,70.719,70.719,0,0,1-12.451,0,3.214,3.214,0,0,1-2.911-2.984,156.119,156.119,0,0,1,0-18.748,3.214,3.214,0,0,1,2.911-2.984,70.548,70.548,0,0,1,12.451,0c.072.006.143.017.213.028,0,3.446.033,6.878.1,10.215A1.348,1.348,0,0,0,20,75.885h.026a1.348,1.348,0,0,0,1.322-1.373c-.068-3.642-.1-7.4-.1-11.16.009-6.892.148-13.9.412-20.819A3.217,3.217,0,0,1,24.3,39.5a36.8,36.8,0,0,1,12.736,0,3.217,3.217,0,0,1,2.637,3.033c.108,2.806.2,5.709.266,8.644a5.877,5.877,0,0,0-3.627,5.145c-.481,9.86-.481,19.859,0,29.719a5.852,5.852,0,0,0,.806,2.7l-.08.017a36.821,36.821,0,0,1-12.737,0Zm32.824-2.844A3.2,3.2,0,0,1,54.3,88.92a50.392,50.392,0,0,1-12.483,0A3.2,3.2,0,0,1,39,85.909c-.476-9.773-.476-19.684,0-29.457a3.2,3.2,0,0,1,2.819-3.011,50.375,50.375,0,0,1,12.483,0,3.2,3.2,0,0,1,2.819,3.011c.476,9.773.476,19.684,0,29.457Z"/>
          <path id="Path_1271216" data-name="Path 1271216" d="M90.556,70.136H76.376a1.348,1.348,0,1,0,0,2.7h14.18a1.348,1.348,0,0,0,0-2.7Z"/>
          <path id="Path_1271217" data-name="Path 1271217" d="M5.751,11.528H18.3a1.348,1.348,0,0,0,0-2.7H5.751a1.348,1.348,0,1,0,0,2.7Z"/>
        </g>
      </g>
    </g>
  </g>
</svg>
